<svg width="20" height="20" viewBox="0 0 20 20" fill="none" xmlns="http://www.w3.org/2000/svg">
<path d="M14.7125 10.6903L8.67794 16.7126C8.49365 16.8966 8.24368 17 7.98301 17C7.72234 17 7.47233 16.8967 7.28798 16.7128C7.10363 16.5289 7.00004 16.2794 7 16.0193C6.99996 15.7591 7.10347 15.5096 7.28776 15.3256L12.6275 9.99689L7.28776 4.66805C7.10625 4.48352 7.0051 4.23492 7.0063 3.97634C7.0075 3.71776 7.11097 3.47011 7.29419 3.28727C7.47741 3.10443 7.72556 3.00119 7.98465 3.00001C8.24375 2.99883 8.49283 3.0998 8.67772 3.28097L14.7123 9.3034C14.8965 9.48733 15 9.73676 15 9.99683C15 10.2569 14.8965 10.5063 14.7123 10.6903H14.7125Z" fill="white" fill-opacity="0.8"/>
</svg>
