<svg width="20" height="20" viewBox="0 0 20 20" fill="none" xmlns="http://www.w3.org/2000/svg">
<path d="M12.1883 4.32663V4.36644L10.5395 3.11852C10.1545 2.82716 9.57861 2.82717 9.19382 3.11849C9.19381 3.11849 9.19381 3.1185 9.1938 3.1185L1.23744 9.14021L1.23744 9.14021C0.924717 9.37693 0.812753 9.75245 0.971672 10.0933L0.971676 10.0933C1.12801 10.4285 1.50119 10.6335 1.91032 10.6335H3.08106V16.5668C3.08106 16.8778 3.37748 17.1 3.70256 17.1H8.06361C8.38865 17.1 8.68511 16.8778 8.68511 16.5668V13.0036H11.0482V16.5668C11.0482 16.8778 11.3446 17.1 11.6697 17.1H16.0305C16.3556 17.1 16.6521 16.8779 16.652 16.5668V10.6336H17.823C18.2321 10.6336 18.6053 10.4285 18.7617 10.0933L18.7617 10.0933C18.9206 9.75245 18.8086 9.37693 18.4958 9.14018L18.4355 9.21992L18.4958 9.14018L17.0374 8.03641V4.32663C17.0374 4.01562 16.741 3.79347 16.4159 3.79347H12.8098C12.4848 3.79347 12.1883 4.01559 12.1883 4.32663ZM13.055 6.03838L13.055 6.03837C13.2745 5.95782 13.4314 5.77037 13.4314 5.54824V4.85979H15.7945V8.27744C15.7945 8.43461 15.8743 8.57888 16.0044 8.67737L17.1801 9.56723H16.0305C15.7055 9.56723 15.409 9.78935 15.409 10.1004V16.0337H12.2912V12.4704C12.2912 12.1594 11.9948 11.9373 11.6697 11.9373H8.06361C7.73857 11.9373 7.4421 12.1594 7.4421 12.4704V16.0337H4.32403V10.1004C4.32403 9.78939 4.02761 9.56723 3.70253 9.56723H2.55319L9.86669 4.03211L12.3983 5.94817L12.4556 5.87245L12.3983 5.94817C12.5798 6.08547 12.8362 6.11861 13.055 6.03838Z" fill="#E1E1E1" stroke="#D2D3D3" stroke-width="0.2"/>
</svg>
