<svg width="20" height="20" viewBox="0 0 20 20" fill="none" xmlns="http://www.w3.org/2000/svg">
<path d="M18.4355 9.21992L16.9374 8.08613V4.32663C16.9374 4.08742 16.7039 3.89347 16.4159 3.89347H12.8098C12.5218 3.89347 12.2883 4.08739 12.2883 4.32663V4.56753L10.4791 3.19826C10.1299 2.93391 9.60326 2.93393 9.25417 3.19823L1.29779 9.21994C1.01807 9.43168 0.925633 9.75791 1.0623 10.051C1.19901 10.3441 1.53186 10.5335 1.91032 10.5335H3.18106V16.5668C3.18106 16.806 3.41453 17 3.70256 17H8.06361C8.3516 17 8.58511 16.806 8.58511 16.5668V12.9036H11.1482V16.5668C11.1482 16.806 11.3816 17 11.6697 17H16.0305C16.3185 17 16.5521 16.8061 16.552 16.5668V10.5336H17.823C18.2015 10.5336 18.5343 10.3441 18.671 10.0511C18.8077 9.75791 18.7153 9.43168 18.4355 9.21992ZM16.0305 9.66723C15.7426 9.66723 15.509 9.86116 15.509 10.1004V16.1337H12.1912V12.4704C12.1912 12.2312 11.9577 12.0373 11.6697 12.0373H8.06361C7.77561 12.0373 7.5421 12.2312 7.5421 12.4704V16.1337H4.22403V10.1004C4.22403 9.86119 3.99055 9.66723 3.70253 9.66723H2.25535L9.86669 3.9067L12.4587 5.86843C12.6113 5.98396 12.8317 6.01374 13.0206 5.94449C13.2095 5.87516 13.3314 5.71975 13.3314 5.54824V4.75979H15.8945V8.27744C15.8945 8.39933 15.9563 8.51553 16.0647 8.59763L17.478 9.66723H16.0305Z" fill="#E1E1E1"/>
</svg>
