<svg width="134" height="77" viewBox="0 0 134 77" fill="none" xmlns="http://www.w3.org/2000/svg">
<g filter="url(#filter0_bdd)">
<path d="M59.9941 25.6116L59.9454 25.6728C59.3341 26.4721 58.4257 27.0049 57.4157 27.1566C56.4058 27.3083 55.3752 27.0666 54.5461 26.4837C52.2423 24.8658 50.0632 23.3353 47.8494 21.8528C40.2624 16.7741 30.891 18.0128 26.0196 24.6863C20.9389 31.6506 22.2231 41.0692 28.8986 45.7536C36.4806 51.0751 45.7681 49.482 51.5015 41.8563C57.1391 34.3578 67.4126 20.6711 70.8475 16.0951C71.2045 15.6197 71.6733 15.2349 72.2143 14.9731C72.7554 14.7114 73.3529 14.5803 73.9567 14.5908C74.7299 14.6026 75.4849 14.8216 76.1393 15.2237C76.7938 15.6258 77.3224 16.1957 77.6676 16.8711C78.0128 17.5465 78.1613 18.3015 78.0968 19.0537C78.0323 19.8059 77.7574 20.5263 77.302 21.1363C71.8184 28.4738 62.8943 40.394 57.4419 47.5381C53.7917 52.41 48.3305 55.6914 42.23 56.6783C36.1296 57.6653 29.8758 56.2791 24.8103 52.8172C14.2899 45.5801 11.3571 31.765 18.1566 21.4687C25.3186 10.6225 39.3101 7.27397 50.6094 13.9398C53.5492 15.7513 56.394 17.7058 59.1329 19.7958C60.0354 20.4568 60.6329 21.44 60.7943 22.5301C60.9557 23.6201 60.668 24.7282 59.9941 25.6116Z" fill="white" fill-opacity="0.8"/>
<path d="M111.782 23.86L111.811 23.8803C112.622 24.4703 113.606 24.7899 114.618 24.792C115.629 24.7941 116.615 24.4785 117.429 23.8918L117.495 23.8443C117.939 23.5226 118.304 23.1082 118.563 22.6313C118.822 22.1544 118.968 21.6271 118.992 21.0879C119.015 20.5486 118.915 20.0111 118.698 19.5146C118.482 19.018 118.154 18.5749 117.74 18.2177C117.145 17.7198 116.521 17.2458 115.868 16.7957C110.803 13.3337 104.549 11.9475 98.4488 12.9343C92.3483 13.9211 86.8871 17.2024 83.2367 22.0742C77.8486 29.1315 69.0721 40.8537 63.5757 48.2105C62.0879 50.2013 62.4954 53.0853 64.6319 54.3985C65.4488 54.9309 66.4441 55.1363 67.4119 54.9724C68.3797 54.8084 69.2458 54.2876 69.8312 53.5176C73.2661 48.9399 83.5396 35.2548 89.1772 27.7564C94.9123 20.1323 104.2 18.5385 111.782 23.86Z" fill="#4381BA"/>
<path d="M117.53 46.6709C116.702 46.0714 115.705 45.7352 114.675 45.7082C113.644 45.6813 112.63 45.9648 111.77 46.5202C106.681 49.7294 99.764 49.5846 93.9063 45.662C91.7255 44.2026 89.579 42.6942 87.3139 41.1039C86.4567 40.5014 85.3913 40.2517 84.3472 40.4088C83.3032 40.5658 82.3642 41.117 81.7326 41.9434C81.0671 42.8162 80.783 43.9109 80.9426 44.9877C81.1022 46.0645 81.6925 47.0357 82.5842 47.6886C85.3356 49.7885 88.1933 51.7525 91.1463 53.573C95.1517 55.9968 99.8138 57.1833 104.522 56.9769C109.23 56.7706 113.764 55.181 117.531 52.4165C117.987 52.0813 118.357 51.6472 118.612 51.1485C118.867 50.6497 119 50.1 119 49.5426C119 48.9853 118.867 48.4356 118.612 47.9368C118.357 47.4381 117.987 47.004 117.531 46.6688L117.53 46.6709Z" fill="white" fill-opacity="0.8"/>
</g>
<defs>
<filter id="filter0_bdd" x="-15.5034" y="-19.4871" width="164.503" height="106.487" filterUnits="userSpaceOnUse" color-interpolation-filters="sRGB">
<feFlood flood-opacity="0" result="BackgroundImageFix"/>
<feGaussianBlur in="BackgroundImage" stdDeviation="15"/>
<feComposite in2="SourceAlpha" operator="in" result="effect1_backgroundBlur"/>
<feColorMatrix in="SourceAlpha" type="matrix" values="0 0 0 0 0 0 0 0 0 0 0 0 0 0 0 0 0 0 127 0"/>
<feOffset dy="4.8"/>
<feGaussianBlur stdDeviation="7.2"/>
<feColorMatrix type="matrix" values="0 0 0 0 0 0 0 0 0 0 0 0 0 0 0 0 0 0 0.15 0"/>
<feBlend mode="normal" in2="effect1_backgroundBlur" result="effect2_dropShadow"/>
<feColorMatrix in="SourceAlpha" type="matrix" values="0 0 0 0 0 0 0 0 0 0 0 0 0 0 0 0 0 0 127 0"/>
<feOffset dy="4"/>
<feGaussianBlur stdDeviation="2"/>
<feColorMatrix type="matrix" values="0 0 0 0 0 0 0 0 0 0 0 0 0 0 0 0 0 0 0.25 0"/>
<feBlend mode="normal" in2="effect2_dropShadow" result="effect3_dropShadow"/>
<feBlend mode="normal" in="SourceGraphic" in2="effect3_dropShadow" result="shape"/>
</filter>
</defs>
</svg>
