<svg width="105" height="47" viewBox="0 0 105 47" fill="none" xmlns="http://www.w3.org/2000/svg">
<path d="M45.9941 15.6116L45.9454 15.6728C45.3341 16.4721 44.4257 17.0049 43.4157 17.1566C42.4058 17.3083 41.3752 17.0666 40.5461 16.4837C38.2423 14.8658 36.0632 13.3353 33.8494 11.8528C26.2624 6.77407 16.891 8.01278 12.0196 14.6863C6.93891 21.6506 8.22306 31.0692 14.8986 35.7536C22.4806 41.0751 31.7681 39.482 37.5015 31.8563C43.1391 24.3578 53.4126 10.6711 56.8475 6.09505C57.2045 5.61967 57.6733 5.23491 58.2143 4.97314C58.7554 4.71138 59.3529 4.58026 59.9567 4.59082C60.7299 4.60263 61.4849 4.82155 62.1393 5.22368C62.7938 5.62581 63.3224 6.19569 63.6676 6.87111C64.0128 7.54654 64.1613 8.30155 64.0968 9.05372C64.0323 9.80589 63.7574 10.5263 63.302 11.1363C57.8184 18.4738 48.8943 30.394 43.4419 37.5381C39.7917 42.41 34.3305 45.6914 28.23 46.6783C22.1296 47.6653 15.8758 46.2791 10.8103 42.8172C0.289871 35.5801 -2.64292 21.765 4.15665 11.4687C11.3186 0.622452 25.3101 -2.72603 36.6094 3.93982C39.5492 5.75129 42.394 7.70576 45.1329 9.79583C46.0354 10.4568 46.6329 11.44 46.7943 12.5301C46.9557 13.6201 46.668 14.7282 45.9941 15.6116Z" fill="white" fill-opacity="0.8"/>
<path d="M97.7818 13.86L97.8105 13.8803C98.6218 14.4703 99.606 14.7899 100.618 14.792C101.629 14.7941 102.615 14.4785 103.429 13.8918L103.495 13.8443C103.939 13.5226 104.304 13.1082 104.563 12.6313C104.822 12.1544 104.968 11.6271 104.992 11.0879C105.015 10.5486 104.915 10.0111 104.698 9.51456C104.482 9.01799 104.154 8.57493 103.74 8.21773C103.145 7.71982 102.521 7.24581 101.868 6.7957C96.803 3.33374 90.5493 1.94746 84.4488 2.93427C78.3483 3.92108 72.8871 7.20236 69.2367 12.0742C63.8486 19.1315 55.0721 30.8537 49.5757 38.2105C48.0879 40.2013 48.4954 43.0853 50.6319 44.3985C51.4488 44.9309 52.4441 45.1363 53.4119 44.9724C54.3797 44.8084 55.2458 44.2876 55.8312 43.5176C59.2661 38.9399 69.5396 25.2548 75.1772 17.7564C80.9123 10.1323 90.1995 8.53853 97.7818 13.86Z" fill="#4381BA"/>
<path d="M103.53 36.6709C102.702 36.0714 101.705 35.7352 100.675 35.7082C99.644 35.6813 98.63 35.9648 97.7704 36.5202C92.6811 39.7294 85.764 39.5846 79.9063 35.662C77.7255 34.2026 75.579 32.6942 73.3139 31.1039C72.4567 30.5014 71.3913 30.2517 70.3472 30.4088C69.3032 30.5658 68.3642 31.117 67.7326 31.9434C67.0671 32.8162 66.783 33.9109 66.9426 34.9877C67.1022 36.0645 67.6925 37.0357 68.5842 37.6886C71.3356 39.7885 74.1933 41.7525 77.1463 43.573C81.1517 45.9968 85.8138 47.1833 90.5219 46.9769C95.2299 46.7706 99.7642 45.181 103.531 42.4165C103.987 42.0813 104.357 41.6472 104.612 41.1485C104.867 40.6497 105 40.1 105 39.5426C105 38.9853 104.867 38.4356 104.612 37.9368C104.357 37.4381 103.987 37.004 103.531 36.6688L103.53 36.6709Z" fill="white" fill-opacity="0.8"/>
</svg>
