<svg width="237" height="128" viewBox="0 0 237 128" fill="none" xmlns="http://www.w3.org/2000/svg">
<g filter="url(#filter0_bdd)">
<path d="M109.626 31.0679L109.559 31.1534C108.723 32.2686 107.479 33.0121 106.097 33.2237C104.715 33.4354 103.305 33.0982 102.17 32.2848C99.0177 30.0273 96.0357 27.8917 93.0062 25.8231C82.6236 18.7365 69.7991 20.4649 63.1328 29.7768C56.1801 39.4944 57.9374 52.6367 67.0727 59.1731C77.4483 66.5985 90.1581 64.3755 98.0039 53.7349C105.719 43.272 119.778 24.1742 124.478 17.789C124.967 17.1257 125.608 16.5888 126.349 16.2235C127.089 15.8583 127.907 15.6753 128.733 15.6901V15.6901C129.791 15.7066 130.825 16.012 131.72 16.5731C132.616 17.1342 133.339 17.9294 133.811 18.8719C134.284 19.8143 134.487 20.8678 134.399 21.9174C134.311 22.9669 133.934 23.9721 133.311 24.8234C125.807 35.0618 113.595 51.6946 106.133 61.663C101.138 68.461 93.6646 73.0398 85.3163 74.4169C76.968 75.794 68.4099 73.8598 61.478 69.0293C47.0811 58.931 43.0676 39.654 52.3726 25.2871C62.1735 10.1528 81.3205 5.4805 96.7832 14.7817C100.806 17.3093 104.699 20.0365 108.447 22.9529C109.682 23.8752 110.5 25.2471 110.721 26.7681C110.942 28.2891 110.548 29.8353 109.626 31.0679Z" fill="white" fill-opacity="0.8"/>
<g filter="url(#filter1_b)">
<path d="M188.362 60.4533C187.229 59.6166 185.864 59.1476 184.454 59.11C183.044 59.0723 181.656 59.4679 180.48 60.2429C173.515 64.7209 164.05 64.5189 156.034 59.0455C153.049 57.009 150.112 54.9042 147.012 52.6852C145.839 51.8445 144.381 51.4962 142.952 51.7154C141.524 51.9345 140.239 52.7035 139.374 53.8567V53.8567C138.463 55.0746 138.075 56.602 138.293 58.1045C138.512 59.607 139.319 60.9622 140.54 61.8732C144.305 64.8034 148.215 67.5438 152.257 70.084C157.738 73.4661 164.118 75.1217 170.561 74.8337C177.003 74.5458 183.208 72.3278 188.363 68.4703C188.987 68.0026 189.494 67.3969 189.843 66.701C190.192 66.005 190.373 65.238 190.373 64.4603C190.373 63.6826 190.192 62.9155 189.843 62.2196C189.494 61.5237 188.987 60.918 188.363 60.4503L188.362 60.4533Z" fill="white" fill-opacity="0.8"/>
</g>
<path d="M180.496 28.6241L180.535 28.6524C181.645 29.4757 182.992 29.9217 184.376 29.9246C185.761 29.9275 187.11 29.4871 188.223 28.6685L188.314 28.6021C188.922 28.1533 189.421 27.575 189.775 26.9096C190.129 26.2442 190.33 25.5084 190.362 24.756C190.394 24.0036 190.257 23.2535 189.96 22.5606C189.664 21.8678 189.216 21.2495 188.648 20.7511C187.835 20.0563 186.981 19.3949 186.088 18.7669C179.156 13.9362 170.598 12.0019 162.25 13.3788C153.901 14.7558 146.428 19.3343 141.433 26.1322C134.059 35.9796 122.049 52.3362 114.527 62.6015C112.491 65.3794 113.049 69.4035 115.972 71.236C117.09 71.9788 118.452 72.2655 119.777 72.0367C121.101 71.8079 122.286 71.0812 123.087 70.0069C127.788 63.6193 141.847 44.5238 149.562 34.0608C157.41 23.4226 170.119 21.1987 180.496 28.6241Z" fill="#3380C7"/>
</g>
<g filter="url(#filter2_bdd)">
<path d="M100.307 108.16C99.7206 108.16 99.2673 107.987 98.9473 107.64C98.6406 107.293 98.4873 106.84 98.4873 106.28V95.3C98.4873 94.74 98.6406 94.2933 98.9473 93.96C99.2673 93.6133 99.7206 93.44 100.307 93.44C100.881 93.44 101.321 93.6133 101.627 93.96C101.934 94.3067 102.087 94.7533 102.087 95.3V106.28C102.087 106.827 101.934 107.28 101.627 107.64C101.321 107.987 100.881 108.16 100.307 108.16ZM106.987 108.16C106.4 108.16 105.947 107.987 105.627 107.64C105.32 107.293 105.167 106.84 105.167 106.28V95.48C105.167 94.8267 105.327 94.3267 105.647 93.98C105.967 93.62 106.4 93.44 106.947 93.44C107.427 93.44 107.827 93.58 108.147 93.86C108.48 94.1267 108.947 94.68 109.547 95.52L114.347 102.26H114.387L114.347 95.3C114.347 94.7533 114.5 94.3067 114.807 93.96C115.127 93.6133 115.58 93.44 116.167 93.44C116.74 93.44 117.18 93.6133 117.487 93.96C117.794 94.2933 117.947 94.74 117.947 95.3V106.12C117.947 106.773 117.787 107.28 117.467 107.64C117.147 107.987 116.7 108.16 116.127 108.16C115.607 108.16 115.14 107.98 114.727 107.62C114.314 107.26 113.727 106.553 112.967 105.5L108.767 99.6H108.727L108.767 106.28C108.767 106.827 108.614 107.28 108.307 107.64C108 107.987 107.56 108.16 106.987 108.16ZM126.406 108.16H122.906C122.293 108.16 121.826 108 121.506 107.68C121.186 107.347 121.026 106.88 121.026 106.28V95.32C121.026 94.0667 121.653 93.44 122.906 93.44H126.406C128.886 93.44 130.793 94.0933 132.126 95.4C133.46 96.7067 134.126 98.5067 134.126 100.8C134.126 103.107 133.46 104.913 132.126 106.22C130.793 107.513 128.886 108.16 126.406 108.16ZM124.626 96.6V105H126.486C127.753 105 128.72 104.64 129.386 103.92C130.066 103.2 130.406 102.16 130.406 100.8C130.406 99.4267 130.066 98.3867 129.386 97.68C128.706 96.96 127.74 96.6 126.486 96.6H124.626ZM142.735 108.34C140.628 108.34 139.035 107.767 137.955 106.62C136.888 105.46 136.355 103.82 136.355 101.7V95.3C136.355 94.7533 136.508 94.3067 136.815 93.96C137.135 93.6133 137.581 93.44 138.155 93.44C138.728 93.44 139.168 93.6133 139.475 93.96C139.795 94.3067 139.955 94.7533 139.955 95.3V102.02C139.955 104.073 140.881 105.1 142.735 105.1C143.681 105.1 144.388 104.833 144.855 104.3C145.321 103.753 145.555 102.993 145.555 102.02V95.3C145.555 94.7533 145.708 94.3067 146.015 93.96C146.335 93.6133 146.781 93.44 147.355 93.44C147.928 93.44 148.368 93.6133 148.675 93.96C148.995 94.3067 149.155 94.7533 149.155 95.3V101.7C149.155 103.833 148.615 105.473 147.535 106.62C146.455 107.767 144.855 108.34 142.735 108.34ZM162.681 103.68C162.681 105.16 162.161 106.307 161.121 107.12C160.095 107.933 158.708 108.34 156.961 108.34C155.121 108.34 153.641 107.987 152.521 107.28C151.748 106.813 151.361 106.253 151.361 105.6C151.361 105.12 151.508 104.747 151.801 104.48C152.095 104.2 152.481 104.06 152.961 104.06C153.255 104.06 153.808 104.247 154.621 104.62C155.435 104.98 156.168 105.16 156.821 105.16C157.475 105.16 157.955 105.033 158.261 104.78C158.581 104.527 158.741 104.22 158.741 103.86C158.741 103.727 158.715 103.6 158.661 103.48C158.608 103.36 158.515 103.253 158.381 103.16C158.261 103.053 158.141 102.967 158.021 102.9C157.915 102.82 157.748 102.74 157.521 102.66C157.295 102.567 157.108 102.5 156.961 102.46C156.828 102.407 156.621 102.333 156.341 102.24C156.061 102.147 155.855 102.08 155.721 102.04C155.068 101.827 154.515 101.613 154.061 101.4C153.621 101.173 153.188 100.893 152.761 100.56C152.348 100.213 152.035 99.7867 151.821 99.28C151.621 98.7733 151.521 98.1867 151.521 97.52C151.521 96.24 152.015 95.22 153.001 94.46C153.988 93.6867 155.355 93.3 157.101 93.3C158.941 93.3 160.335 93.62 161.281 94.26C161.855 94.66 162.141 95.1467 162.141 95.72C162.141 96.2 162.001 96.58 161.721 96.86C161.441 97.14 161.061 97.28 160.581 97.28C160.208 97.28 159.675 97.14 158.981 96.86C158.288 96.5667 157.681 96.42 157.161 96.42C156.628 96.42 156.208 96.5267 155.901 96.74C155.608 96.94 155.461 97.2133 155.461 97.56C155.461 97.8667 155.595 98.1133 155.861 98.3C156.141 98.4867 156.561 98.6733 157.121 98.86C157.201 98.8867 157.315 98.92 157.461 98.96C159.181 99.4933 160.348 99.96 160.961 100.36C162.108 101.107 162.681 102.213 162.681 103.68ZM169.878 108.16C169.291 108.16 168.838 107.987 168.518 107.64C168.211 107.293 168.058 106.84 168.058 106.28L168.038 96.76H165.018C164.538 96.76 164.144 96.6067 163.838 96.3C163.544 95.9933 163.398 95.6 163.398 95.12C163.398 94.6267 163.551 94.2267 163.858 93.92C164.164 93.6 164.564 93.44 165.058 93.44H174.658C175.151 93.44 175.551 93.6 175.858 93.92C176.164 94.2267 176.318 94.6267 176.318 95.12C176.318 95.6 176.164 95.9933 175.858 96.3C175.551 96.6067 175.158 96.76 174.678 96.76H171.678L171.658 106.28C171.658 106.827 171.504 107.28 171.198 107.64C170.891 107.987 170.451 108.16 169.878 108.16ZM179.858 108.16C179.271 108.16 178.818 107.987 178.498 107.64C178.191 107.293 178.038 106.84 178.038 106.28V95.32C178.038 94.7067 178.198 94.24 178.518 93.92C178.838 93.5867 179.305 93.4267 179.918 93.44H183.518C185.425 93.44 186.891 93.8533 187.918 94.68C188.958 95.4933 189.478 96.74 189.478 98.42C189.478 100.393 188.678 101.833 187.078 102.74L188.698 105.32C188.991 105.787 189.138 106.213 189.138 106.6C189.138 107.027 188.951 107.393 188.578 107.7C188.218 108.007 187.765 108.16 187.218 108.16C186.858 108.16 186.551 108.053 186.298 107.84C186.058 107.627 185.811 107.307 185.558 106.88L183.418 103.38H181.638V106.28C181.638 106.827 181.485 107.28 181.178 107.64C180.871 107.987 180.431 108.16 179.858 108.16ZM181.638 96.42V100.48H183.798C184.491 100.48 185.025 100.307 185.398 99.96C185.771 99.6133 185.958 99.1133 185.958 98.46C185.958 97.7667 185.738 97.2533 185.298 96.92C184.858 96.5867 184.265 96.42 183.518 96.42H181.638ZM193.745 108.16C193.158 108.16 192.705 107.987 192.385 107.64C192.078 107.293 191.925 106.84 191.925 106.28V95.3C191.925 94.74 192.078 94.2933 192.385 93.96C192.705 93.6133 193.158 93.44 193.745 93.44C194.318 93.44 194.758 93.6133 195.065 93.96C195.371 94.3067 195.525 94.7533 195.525 95.3V106.28C195.525 106.827 195.371 107.28 195.065 107.64C194.758 107.987 194.318 108.16 193.745 108.16ZM210.484 105.86C210.698 106.46 210.644 106.993 210.324 107.46C210.018 107.927 209.518 108.16 208.824 108.16C208.344 108.16 207.978 108.04 207.724 107.8C207.484 107.547 207.278 107.16 207.104 106.64L206.644 105.26H201.564L201.104 106.64C200.931 107.16 200.718 107.547 200.464 107.8C200.224 108.04 199.864 108.16 199.384 108.16C198.691 108.16 198.184 107.927 197.864 107.46C197.558 106.993 197.511 106.46 197.724 105.86L201.144 96.3C201.518 95.2733 201.904 94.54 202.304 94.1C202.718 93.66 203.318 93.44 204.104 93.44C204.891 93.44 205.484 93.66 205.884 94.1C206.284 94.5267 206.671 95.2667 207.044 96.32L210.484 105.86ZM202.524 102.34H205.664L204.104 97.72H204.064L202.524 102.34ZM220.067 108.16H214.547C213.934 108.16 213.467 108 213.147 107.68C212.827 107.347 212.667 106.88 212.667 106.28V95.24C212.667 94.72 212.834 94.2933 213.167 93.96C213.514 93.6133 213.954 93.44 214.487 93.44C215.007 93.44 215.434 93.6067 215.767 93.94C216.1 94.2733 216.267 94.7 216.267 95.22L216.287 104.84H220.047C220.54 104.84 220.934 104.993 221.227 105.3C221.534 105.593 221.687 106 221.687 106.52C221.687 107.027 221.534 107.427 221.227 107.72C220.934 108.013 220.547 108.16 220.067 108.16Z" fill="white" fill-opacity="0.8"/>
<path d="M21.9532 108.16H18.4532C17.8399 108.16 17.3732 108 17.0532 107.68C16.7332 107.347 16.5732 106.88 16.5732 106.28V95.32C16.5732 94.0667 17.1999 93.44 18.4532 93.44H21.9532C24.4332 93.44 26.3399 94.0933 27.6732 95.4C29.0065 96.7067 29.6732 98.5067 29.6732 100.8C29.6732 103.107 29.0065 104.913 27.6732 106.22C26.3399 107.513 24.4332 108.16 21.9532 108.16ZM20.1732 96.6V105H22.0332C23.2999 105 24.2665 104.64 24.9332 103.92C25.6132 103.2 25.9532 102.16 25.9532 100.8C25.9532 99.4267 25.6132 98.3867 24.9332 97.68C24.2532 96.96 23.2865 96.6 22.0332 96.6H20.1732ZM40.0615 108.16H33.9415C33.3282 108.16 32.8615 108 32.5415 107.68C32.2215 107.347 32.0615 106.88 32.0615 106.28V95.32C32.0615 94.0667 32.6882 93.44 33.9415 93.44H40.0015C40.4415 93.44 40.7948 93.5733 41.0615 93.84C41.3415 94.1067 41.4815 94.4733 41.4815 94.94C41.4815 95.3933 41.3482 95.7533 41.0815 96.02C40.8282 96.2733 40.4815 96.4 40.0415 96.4H35.6215L35.6415 99.28H39.4015C39.8548 99.28 40.2148 99.42 40.4815 99.7C40.7615 99.98 40.9015 100.353 40.9015 100.82C40.9015 101.287 40.7615 101.653 40.4815 101.92C40.2148 102.187 39.8615 102.32 39.4215 102.32H35.6415L35.6615 105.18H40.0415C40.4815 105.18 40.8348 105.313 41.1015 105.58C41.3815 105.847 41.5215 106.213 41.5215 106.68C41.5215 107.133 41.3882 107.493 41.1215 107.76C40.8548 108.027 40.5015 108.16 40.0615 108.16ZM54.5174 103.68C54.5174 105.16 53.9974 106.307 52.9574 107.12C51.9308 107.933 50.5441 108.34 48.7974 108.34C46.9574 108.34 45.4774 107.987 44.3574 107.28C43.5841 106.813 43.1974 106.253 43.1974 105.6C43.1974 105.12 43.3441 104.747 43.6374 104.48C43.9308 104.2 44.3174 104.06 44.7974 104.06C45.0908 104.06 45.6441 104.247 46.4574 104.62C47.2708 104.98 48.0041 105.16 48.6574 105.16C49.3108 105.16 49.7908 105.033 50.0974 104.78C50.4174 104.527 50.5774 104.22 50.5774 103.86C50.5774 103.727 50.5508 103.6 50.4974 103.48C50.4441 103.36 50.3508 103.253 50.2174 103.16C50.0974 103.053 49.9774 102.967 49.8574 102.9C49.7508 102.82 49.5841 102.74 49.3574 102.66C49.1308 102.567 48.9441 102.5 48.7974 102.46C48.6641 102.407 48.4574 102.333 48.1774 102.24C47.8974 102.147 47.6908 102.08 47.5574 102.04C46.9041 101.827 46.3508 101.613 45.8974 101.4C45.4574 101.173 45.0241 100.893 44.5974 100.56C44.1841 100.213 43.8708 99.7867 43.6574 99.28C43.4574 98.7733 43.3574 98.1867 43.3574 97.52C43.3574 96.24 43.8508 95.22 44.8374 94.46C45.8241 93.6867 47.1908 93.3 48.9374 93.3C50.7774 93.3 52.1708 93.62 53.1174 94.26C53.6908 94.66 53.9774 95.1467 53.9774 95.72C53.9774 96.2 53.8374 96.58 53.5574 96.86C53.2774 97.14 52.8974 97.28 52.4174 97.28C52.0441 97.28 51.5108 97.14 50.8174 96.86C50.1241 96.5667 49.5174 96.42 48.9974 96.42C48.4641 96.42 48.0441 96.5267 47.7374 96.74C47.4441 96.94 47.2974 97.2133 47.2974 97.56C47.2974 97.8667 47.4308 98.1133 47.6974 98.3C47.9774 98.4867 48.3974 98.6733 48.9574 98.86C49.0374 98.8867 49.1508 98.92 49.2974 98.96C51.0174 99.4933 52.1841 99.96 52.7974 100.36C53.9441 101.107 54.5174 102.213 54.5174 103.68ZM58.6471 108.16C58.0604 108.16 57.6071 107.987 57.2871 107.64C56.9804 107.293 56.8271 106.84 56.8271 106.28V95.3C56.8271 94.74 56.9804 94.2933 57.2871 93.96C57.6071 93.6133 58.0604 93.44 58.6471 93.44C59.2204 93.44 59.6604 93.6133 59.9671 93.96C60.2738 94.3067 60.4271 94.7533 60.4271 95.3V106.28C60.4271 106.827 60.2738 107.28 59.9671 107.64C59.6604 107.987 59.2204 108.16 58.6471 108.16ZM70.6068 108.34C68.2601 108.34 66.3735 107.667 64.9468 106.32C63.5201 104.973 62.8068 103.133 62.8068 100.8C62.8068 98.4667 63.5201 96.6333 64.9468 95.3C66.3735 93.9667 68.2868 93.3 70.6868 93.3C72.2068 93.3 73.3601 93.52 74.1468 93.96C74.7868 94.3333 75.1068 94.84 75.1068 95.48C75.1068 95.9467 74.9668 96.3267 74.6868 96.62C74.4201 96.9 74.0735 97.04 73.6468 97.04C73.4601 97.04 73.1001 96.98 72.5668 96.86C72.0335 96.7267 71.5001 96.6533 70.9668 96.64C69.6335 96.64 68.5601 97 67.7468 97.72C66.9335 98.44 66.5268 99.48 66.5268 100.84C66.5268 102.187 66.9135 103.233 67.6868 103.98C68.4601 104.713 69.4801 105.08 70.7468 105.08C71.2268 105.08 71.6468 105.013 72.0068 104.88V101.92C72.0068 101.413 72.1535 101 72.4468 100.68C72.7401 100.36 73.1535 100.2 73.6868 100.2C74.2201 100.2 74.6268 100.36 74.9068 100.68C75.1868 101 75.3268 101.413 75.3268 101.92V105.76C75.3268 106.68 74.9201 107.347 74.1068 107.76C73.2935 108.147 72.1268 108.34 70.6068 108.34ZM79.7018 108.16C79.1151 108.16 78.6618 107.987 78.3418 107.64C78.0351 107.293 77.8818 106.84 77.8818 106.28V95.48C77.8818 94.8267 78.0418 94.3267 78.3618 93.98C78.6818 93.62 79.1151 93.44 79.6618 93.44C80.1418 93.44 80.5418 93.58 80.8618 93.86C81.1951 94.1267 81.6618 94.68 82.2618 95.52L87.0618 102.26H87.1018L87.0618 95.3C87.0618 94.7533 87.2151 94.3067 87.5218 93.96C87.8418 93.6133 88.2951 93.44 88.8818 93.44C89.4551 93.44 89.8951 93.6133 90.2018 93.96C90.5085 94.2933 90.6618 94.74 90.6618 95.3V106.12C90.6618 106.773 90.5018 107.28 90.1818 107.64C89.8618 107.987 89.4151 108.16 88.8418 108.16C88.3218 108.16 87.8551 107.98 87.4418 107.62C87.0285 107.26 86.4418 106.553 85.6818 105.5L81.4818 99.6H81.4418L81.4818 106.28C81.4818 106.827 81.3285 107.28 81.0218 107.64C80.7151 107.987 80.2751 108.16 79.7018 108.16Z" fill="#3380C7"/>
</g>
<defs>
<filter id="filter0_bdd" x="17.364" y="-20" width="203.009" height="124.866" filterUnits="userSpaceOnUse" color-interpolation-filters="sRGB">
<feFlood flood-opacity="0" result="BackgroundImageFix"/>
<feGaussianBlur in="BackgroundImage" stdDeviation="15"/>
<feComposite in2="SourceAlpha" operator="in" result="effect1_backgroundBlur"/>
<feColorMatrix in="SourceAlpha" type="matrix" values="0 0 0 0 0 0 0 0 0 0 0 0 0 0 0 0 0 0 127 0"/>
<feOffset dy="4.8"/>
<feGaussianBlur stdDeviation="7.2"/>
<feColorMatrix type="matrix" values="0 0 0 0 0 0 0 0 0 0 0 0 0 0 0 0 0 0 0.15 0"/>
<feBlend mode="normal" in2="effect1_backgroundBlur" result="effect2_dropShadow"/>
<feColorMatrix in="SourceAlpha" type="matrix" values="0 0 0 0 0 0 0 0 0 0 0 0 0 0 0 0 0 0 127 0"/>
<feOffset dy="4"/>
<feGaussianBlur stdDeviation="2"/>
<feColorMatrix type="matrix" values="0 0 0 0 0 0 0 0 0 0 0 0 0 0 0 0 0 0 0.25 0"/>
<feBlend mode="normal" in2="effect2_dropShadow" result="effect3_dropShadow"/>
<feBlend mode="normal" in="SourceGraphic" in2="effect3_dropShadow" result="shape"/>
</filter>
<filter id="filter1_b" x="109.314" y="8.94559" width="85.0523" height="67.1679" filterUnits="userSpaceOnUse" color-interpolation-filters="sRGB">
<feFlood flood-opacity="0" result="BackgroundImageFix"/>
<feGaussianBlur in="BackgroundImage" stdDeviation="2"/>
<feComposite in2="SourceAlpha" operator="in" result="effect1_backgroundBlur"/>
<feBlend mode="normal" in="SourceGraphic" in2="effect1_backgroundBlur" result="shape"/>
</filter>
<filter id="filter2_bdd" x="-13.4268" y="63.3" width="265.114" height="75.04" filterUnits="userSpaceOnUse" color-interpolation-filters="sRGB">
<feFlood flood-opacity="0" result="BackgroundImageFix"/>
<feGaussianBlur in="BackgroundImage" stdDeviation="15"/>
<feComposite in2="SourceAlpha" operator="in" result="effect1_backgroundBlur"/>
<feColorMatrix in="SourceAlpha" type="matrix" values="0 0 0 0 0 0 0 0 0 0 0 0 0 0 0 0 0 0 127 0"/>
<feOffset dy="4.8"/>
<feGaussianBlur stdDeviation="7.2"/>
<feColorMatrix type="matrix" values="0 0 0 0 0 0 0 0 0 0 0 0 0 0 0 0 0 0 0.15 0"/>
<feBlend mode="normal" in2="effect1_backgroundBlur" result="effect2_dropShadow"/>
<feColorMatrix in="SourceAlpha" type="matrix" values="0 0 0 0 0 0 0 0 0 0 0 0 0 0 0 0 0 0 127 0"/>
<feOffset dy="4"/>
<feGaussianBlur stdDeviation="2"/>
<feColorMatrix type="matrix" values="0 0 0 0 0 0 0 0 0 0 0 0 0 0 0 0 0 0 0.25 0"/>
<feBlend mode="normal" in2="effect2_dropShadow" result="effect3_dropShadow"/>
<feBlend mode="normal" in="SourceGraphic" in2="effect3_dropShadow" result="shape"/>
</filter>
</defs>
</svg>
