<svg width="237" height="128" viewBox="0 0 237 128" fill="none" xmlns="http://www.w3.org/2000/svg">
<g filter="url(#filter0_bdd)">
<path d="M109.626 31.0679L109.559 31.1534C108.723 32.2686 107.479 33.0121 106.097 33.2237C104.715 33.4354 103.305 33.0982 102.17 32.2848C99.0177 30.0273 96.0357 27.8917 93.0062 25.8231C82.6236 18.7365 69.7991 20.4649 63.1328 29.7768C56.1801 39.4944 57.9374 52.6367 67.0727 59.1731C77.4483 66.5985 90.1581 64.3755 98.0039 53.7349C105.719 43.272 119.778 24.1742 124.478 17.789C124.967 17.1257 125.608 16.5888 126.349 16.2235C127.089 15.8583 127.907 15.6753 128.733 15.6901V15.6901C129.791 15.7066 130.825 16.012 131.72 16.5731C132.616 17.1342 133.339 17.9294 133.811 18.8719C134.284 19.8143 134.487 20.8678 134.399 21.9174C134.311 22.9669 133.934 23.9721 133.311 24.8234C125.807 35.0618 113.595 51.6946 106.133 61.663C101.138 68.461 93.6646 73.0398 85.3163 74.4169C76.968 75.794 68.4099 73.8598 61.478 69.0293C47.0811 58.931 43.0676 39.654 52.3726 25.2871C62.1735 10.1528 81.3205 5.4805 96.7832 14.7817C100.806 17.3093 104.699 20.0365 108.447 22.9529C109.682 23.8752 110.5 25.2471 110.721 26.7681C110.942 28.2891 110.548 29.8353 109.626 31.0679Z" fill="white" fill-opacity="0.8"/>
<g filter="url(#filter1_b)">
<path d="M188.362 60.4533C187.229 59.6167 185.864 59.1476 184.454 59.11C183.044 59.0723 181.656 59.4679 180.48 60.2429C173.515 64.721 164.05 64.5189 156.034 59.0455C153.049 57.009 150.112 54.9043 147.012 52.6852C145.839 51.8446 144.381 51.4963 142.952 51.7154C141.524 51.9345 140.239 52.7035 139.374 53.8567V53.8567C138.463 55.0746 138.075 56.602 138.293 58.1045C138.512 59.6071 139.319 60.9622 140.54 61.8732C144.305 64.8034 148.215 67.5438 152.257 70.084C157.738 73.4662 164.118 75.1217 170.561 74.8338C177.003 74.5458 183.208 72.3278 188.363 68.4703C188.987 68.0026 189.494 67.3969 189.843 66.701C190.192 66.0051 190.373 65.238 190.373 64.4603C190.373 63.6826 190.192 62.9156 189.843 62.2197C189.494 61.5237 188.987 60.918 188.363 60.4503L188.362 60.4533Z" fill="white" fill-opacity="0.8"/>
</g>
<path d="M180.496 28.6241L180.535 28.6524C181.645 29.4756 182.992 29.9216 184.376 29.9245C185.761 29.9274 187.11 29.4871 188.223 28.6685L188.314 28.6021C188.922 28.1533 189.421 27.575 189.775 26.9096C190.129 26.2442 190.33 25.5084 190.362 24.756C190.394 24.0035 190.257 23.2535 189.96 22.5606C189.664 21.8677 189.216 21.2495 188.648 20.7511C187.835 20.0563 186.981 19.3949 186.088 18.7669C179.156 13.9362 170.598 12.0019 162.25 13.3788C153.901 14.7557 146.428 19.3343 141.433 26.1322C134.059 35.9796 122.049 52.3362 114.527 62.6015C112.491 65.3794 113.049 69.4035 115.972 71.2359C117.09 71.9788 118.452 72.2655 119.777 72.0367C121.101 71.8079 122.286 71.0812 123.087 70.0068C127.788 63.6192 141.847 44.5238 149.562 34.0608C157.41 23.4226 170.119 21.1987 180.496 28.6241Z" fill="#3380C7"/>
</g>
<g filter="url(#filter2_bdd)">
<path d="M149.211 108.168C148.595 108.168 148.119 107.986 147.783 107.622C147.461 107.258 147.3 106.782 147.3 106.194V94.665C147.3 94.077 147.461 93.608 147.783 93.258C148.119 92.894 148.595 92.712 149.211 92.712C149.813 92.712 150.275 92.894 150.597 93.258C150.919 93.622 151.08 94.091 151.08 94.665V106.194C151.08 106.768 150.919 107.244 150.597 107.622C150.275 107.986 149.813 108.168 149.211 108.168ZM163.474 106.803C162.424 107.839 160.989 108.357 159.169 108.357C157.349 108.357 155.907 107.839 154.843 106.803C153.793 105.767 153.268 104.395 153.268 102.687C153.268 100.951 153.8 99.579 154.864 98.571C155.928 97.549 157.363 97.038 159.169 97.038C160.961 97.038 162.389 97.549 163.453 98.571C164.531 99.579 165.07 100.951 165.07 102.687C165.07 104.395 164.538 105.767 163.474 106.803ZM159.169 105.123C159.813 105.123 160.324 104.906 160.702 104.472C161.08 104.038 161.269 103.443 161.269 102.687C161.269 101.945 161.073 101.357 160.681 100.923C160.303 100.489 159.792 100.272 159.148 100.272C158.518 100.272 158.007 100.482 157.615 100.902C157.237 101.322 157.048 101.917 157.048 102.687C157.048 103.457 157.244 104.059 157.636 104.493C158.028 104.913 158.539 105.123 159.169 105.123ZM170.334 108.168C169.718 108.168 169.242 107.986 168.906 107.622C168.584 107.258 168.423 106.782 168.423 106.194L168.402 96.198H165.231C164.727 96.198 164.314 96.037 163.992 95.715C163.684 95.393 163.53 94.98 163.53 94.476C163.53 93.958 163.691 93.538 164.013 93.216C164.335 92.88 164.755 92.712 165.273 92.712H175.353C175.871 92.712 176.291 92.88 176.613 93.216C176.935 93.538 177.096 93.958 177.096 94.476C177.096 94.98 176.935 95.393 176.613 95.715C176.291 96.037 175.878 96.198 175.374 96.198H172.224L172.203 106.194C172.203 106.768 172.042 107.244 171.72 107.622C171.398 107.986 170.936 108.168 170.334 108.168Z" fill="white" fill-opacity="0.8"/>
<path d="M66.9393 108.168H63.2643C62.6203 108.168 62.1303 108 61.7943 107.664C61.4583 107.314 61.2903 106.824 61.2903 106.194V94.686C61.2903 93.37 61.9483 92.712 63.2643 92.712H66.9393C69.5433 92.712 71.5453 93.398 72.9453 94.77C74.3453 96.142 75.0453 98.032 75.0453 100.44C75.0453 102.862 74.3453 104.759 72.9453 106.131C71.5453 107.489 69.5433 108.168 66.9393 108.168ZM65.0703 96.03V104.85H67.0233C68.3533 104.85 69.3683 104.472 70.0683 103.716C70.7823 102.96 71.1393 101.868 71.1393 100.44C71.1393 98.998 70.7823 97.906 70.0683 97.164C69.3543 96.408 68.3393 96.03 67.0233 96.03H65.0703ZM85.953 108.168H79.527C78.883 108.168 78.393 108 78.057 107.664C77.721 107.314 77.553 106.824 77.553 106.194V94.686C77.553 93.37 78.211 92.712 79.527 92.712H85.89C86.352 92.712 86.723 92.852 87.003 93.132C87.297 93.412 87.444 93.797 87.444 94.287C87.444 94.763 87.304 95.141 87.024 95.421C86.758 95.687 86.394 95.82 85.932 95.82H81.291L81.312 98.844H85.26C85.736 98.844 86.114 98.991 86.394 99.285C86.688 99.579 86.835 99.971 86.835 100.461C86.835 100.951 86.688 101.336 86.394 101.616C86.114 101.896 85.743 102.036 85.281 102.036H81.312L81.333 105.039H85.932C86.394 105.039 86.765 105.179 87.045 105.459C87.339 105.739 87.486 106.124 87.486 106.614C87.486 107.09 87.346 107.468 87.066 107.748C86.786 108.028 86.415 108.168 85.953 108.168ZM101.132 103.464C101.132 105.018 100.586 106.222 99.4938 107.076C98.4158 107.93 96.9598 108.357 95.1258 108.357C93.1938 108.357 91.6398 107.986 90.4638 107.244C89.6518 106.754 89.2458 106.166 89.2458 105.48C89.2458 104.976 89.3998 104.584 89.7078 104.304C90.0158 104.01 90.4218 103.863 90.9258 103.863C91.2338 103.863 91.8148 104.059 92.6688 104.451C93.5228 104.829 94.2928 105.018 94.9788 105.018C95.6648 105.018 96.1688 104.885 96.4908 104.619C96.8268 104.353 96.9948 104.031 96.9948 103.653C96.9948 103.513 96.9668 103.38 96.9108 103.254C96.8548 103.128 96.7568 103.016 96.6168 102.918C96.4908 102.806 96.3648 102.715 96.2388 102.645C96.1268 102.561 95.9518 102.477 95.7138 102.393C95.4758 102.295 95.2798 102.225 95.1258 102.183C94.9858 102.127 94.7688 102.05 94.4748 101.952C94.1808 101.854 93.9638 101.784 93.8238 101.742C93.1378 101.518 92.5568 101.294 92.0808 101.07C91.6188 100.832 91.1638 100.538 90.7158 100.188C90.2818 99.824 89.9528 99.376 89.7288 98.844C89.5188 98.312 89.4138 97.696 89.4138 96.996C89.4138 95.652 89.9318 94.581 90.9678 93.783C92.0038 92.971 93.4388 92.565 95.2728 92.565C97.2048 92.565 98.6678 92.901 99.6618 93.573C100.264 93.993 100.565 94.504 100.565 95.106C100.565 95.61 100.418 96.009 100.124 96.303C99.8298 96.597 99.4308 96.744 98.9268 96.744C98.5348 96.744 97.9748 96.597 97.2468 96.303C96.5188 95.995 95.8818 95.841 95.3358 95.841C94.7758 95.841 94.3348 95.953 94.0128 96.177C93.7048 96.387 93.5508 96.674 93.5508 97.038C93.5508 97.36 93.6908 97.619 93.9708 97.815C94.2648 98.011 94.7058 98.207 95.2938 98.403C95.3778 98.431 95.4968 98.466 95.6508 98.508C97.4568 99.068 98.6818 99.558 99.3258 99.978C100.53 100.762 101.132 101.924 101.132 103.464ZM105.468 108.168C104.852 108.168 104.376 107.986 104.04 107.622C103.718 107.258 103.557 106.782 103.557 106.194V94.665C103.557 94.077 103.718 93.608 104.04 93.258C104.376 92.894 104.852 92.712 105.468 92.712C106.07 92.712 106.532 92.894 106.854 93.258C107.176 93.622 107.337 94.091 107.337 94.665V106.194C107.337 106.768 107.176 107.244 106.854 107.622C106.532 107.986 106.07 108.168 105.468 108.168ZM118.026 108.357C115.562 108.357 113.581 107.65 112.083 106.236C110.585 104.822 109.836 102.89 109.836 100.44C109.836 97.99 110.585 96.065 112.083 94.665C113.581 93.265 115.59 92.565 118.11 92.565C119.706 92.565 120.917 92.796 121.743 93.258C122.415 93.65 122.751 94.182 122.751 94.854C122.751 95.344 122.604 95.743 122.31 96.051C122.03 96.345 121.666 96.492 121.218 96.492C121.022 96.492 120.644 96.429 120.084 96.303C119.524 96.163 118.964 96.086 118.404 96.072C117.004 96.072 115.877 96.45 115.023 97.206C114.169 97.962 113.742 99.054 113.742 100.482C113.742 101.896 114.148 102.995 114.96 103.779C115.772 104.549 116.843 104.934 118.173 104.934C118.677 104.934 119.118 104.864 119.496 104.724V101.616C119.496 101.084 119.65 100.65 119.958 100.314C120.266 99.978 120.7 99.81 121.26 99.81C121.82 99.81 122.247 99.978 122.541 100.314C122.835 100.65 122.982 101.084 122.982 101.616V105.648C122.982 106.614 122.555 107.314 121.701 107.748C120.847 108.154 119.622 108.357 118.026 108.357ZM127.575 108.168C126.959 108.168 126.483 107.986 126.147 107.622C125.825 107.258 125.664 106.782 125.664 106.194V94.854C125.664 94.168 125.832 93.643 126.168 93.279C126.504 92.901 126.959 92.712 127.533 92.712C128.037 92.712 128.457 92.859 128.793 93.153C129.143 93.433 129.633 94.014 130.263 94.896L135.303 101.973H135.345L135.303 94.665C135.303 94.091 135.464 93.622 135.786 93.258C136.122 92.894 136.598 92.712 137.214 92.712C137.816 92.712 138.278 92.894 138.6 93.258C138.922 93.608 139.083 94.077 139.083 94.665V106.026C139.083 106.712 138.915 107.244 138.579 107.622C138.243 107.986 137.774 108.168 137.172 108.168C136.626 108.168 136.136 107.979 135.702 107.601C135.268 107.223 134.652 106.481 133.854 105.375L129.444 99.18H129.402L129.444 106.194C129.444 106.768 129.283 107.244 128.961 107.622C128.639 107.986 128.177 108.168 127.575 108.168Z" fill="#3380C7"/>
</g>
<defs>
<filter id="filter0_bdd" x="17.364" y="-20" width="203.009" height="124.866" filterUnits="userSpaceOnUse" color-interpolation-filters="sRGB">
<feFlood flood-opacity="0" result="BackgroundImageFix"/>
<feGaussianBlur in="BackgroundImage" stdDeviation="15"/>
<feComposite in2="SourceAlpha" operator="in" result="effect1_backgroundBlur"/>
<feColorMatrix in="SourceAlpha" type="matrix" values="0 0 0 0 0 0 0 0 0 0 0 0 0 0 0 0 0 0 127 0"/>
<feOffset dy="4.8"/>
<feGaussianBlur stdDeviation="7.2"/>
<feColorMatrix type="matrix" values="0 0 0 0 0 0 0 0 0 0 0 0 0 0 0 0 0 0 0.15 0"/>
<feBlend mode="normal" in2="effect1_backgroundBlur" result="effect2_dropShadow"/>
<feColorMatrix in="SourceAlpha" type="matrix" values="0 0 0 0 0 0 0 0 0 0 0 0 0 0 0 0 0 0 127 0"/>
<feOffset dy="4"/>
<feGaussianBlur stdDeviation="2"/>
<feColorMatrix type="matrix" values="0 0 0 0 0 0 0 0 0 0 0 0 0 0 0 0 0 0 0.25 0"/>
<feBlend mode="normal" in2="effect2_dropShadow" result="effect3_dropShadow"/>
<feBlend mode="normal" in="SourceGraphic" in2="effect3_dropShadow" result="shape"/>
</filter>
<filter id="filter1_b" x="109.314" y="8.94556" width="85.0523" height="67.1679" filterUnits="userSpaceOnUse" color-interpolation-filters="sRGB">
<feFlood flood-opacity="0" result="BackgroundImageFix"/>
<feGaussianBlur in="BackgroundImage" stdDeviation="2"/>
<feComposite in2="SourceAlpha" operator="in" result="effect1_backgroundBlur"/>
<feBlend mode="normal" in="SourceGraphic" in2="effect1_backgroundBlur" result="shape"/>
</filter>
<filter id="filter2_bdd" x="31.2903" y="62.565" width="175.806" height="75.792" filterUnits="userSpaceOnUse" color-interpolation-filters="sRGB">
<feFlood flood-opacity="0" result="BackgroundImageFix"/>
<feGaussianBlur in="BackgroundImage" stdDeviation="15"/>
<feComposite in2="SourceAlpha" operator="in" result="effect1_backgroundBlur"/>
<feColorMatrix in="SourceAlpha" type="matrix" values="0 0 0 0 0 0 0 0 0 0 0 0 0 0 0 0 0 0 127 0"/>
<feOffset dy="4.8"/>
<feGaussianBlur stdDeviation="7.2"/>
<feColorMatrix type="matrix" values="0 0 0 0 0 0 0 0 0 0 0 0 0 0 0 0 0 0 0.15 0"/>
<feBlend mode="normal" in2="effect1_backgroundBlur" result="effect2_dropShadow"/>
<feColorMatrix in="SourceAlpha" type="matrix" values="0 0 0 0 0 0 0 0 0 0 0 0 0 0 0 0 0 0 127 0"/>
<feOffset dy="4"/>
<feGaussianBlur stdDeviation="2"/>
<feColorMatrix type="matrix" values="0 0 0 0 0 0 0 0 0 0 0 0 0 0 0 0 0 0 0.25 0"/>
<feBlend mode="normal" in2="effect2_dropShadow" result="effect3_dropShadow"/>
<feBlend mode="normal" in="SourceGraphic" in2="effect3_dropShadow" result="shape"/>
</filter>
</defs>
</svg>
