<svg width="173" height="118" viewBox="0 0 173 118" fill="none" xmlns="http://www.w3.org/2000/svg">
<path d="M77.6259 21.0679L77.5592 21.1534C76.7227 22.2686 75.4795 23.0121 74.0974 23.2237C72.7153 23.4354 71.305 23.0982 70.1704 22.2848C67.0177 20.0273 64.0357 17.8917 61.0062 15.8231C50.6236 8.73648 37.7991 10.4649 31.1328 19.7768C24.1801 29.4944 25.9374 42.6367 35.0727 49.1731C45.4483 56.5985 58.1581 54.3755 66.0039 43.7349C73.7189 33.272 87.7779 14.1742 92.4784 7.78901C92.967 7.12567 93.6084 6.5888 94.3488 6.22355C95.0892 5.85829 95.9069 5.67534 96.7332 5.69008V5.69008C97.7913 5.70656 98.8245 6.01203 99.7201 6.57314C100.616 7.13424 101.339 7.92943 101.811 8.87188C102.284 9.81433 102.487 10.8678 102.399 11.9174C102.311 12.9669 101.934 13.9721 101.311 14.8234C93.8071 25.0618 81.5946 41.6946 74.1333 51.663C69.138 58.461 61.6646 63.0398 53.3163 64.4169C44.968 65.794 36.4099 63.8598 29.478 59.0293C15.0811 48.931 11.0676 29.654 20.3726 15.2871C30.1735 0.152809 49.3205 -4.5195 64.7832 4.7817C68.8062 7.30934 72.6992 10.0365 76.4473 12.9529C77.6824 13.8752 78.5 15.2471 78.7209 16.7681C78.9418 18.2891 78.548 19.8353 77.6259 21.0679Z" fill="white" fill-opacity="0.8"/>
<path d="M148.496 18.6241L148.535 18.6524C149.645 19.4756 150.992 19.9216 152.376 19.9245C153.761 19.9274 155.11 19.4871 156.223 18.6685L156.314 18.6021C156.922 18.1533 157.421 17.575 157.775 16.9096C158.129 16.2442 158.33 15.5084 158.362 14.756C158.394 14.0035 158.257 13.2535 157.96 12.5606C157.664 11.8677 157.216 11.2495 156.648 10.7511C155.835 10.0563 154.981 9.39491 154.088 8.76685C147.156 3.9362 138.598 2.00185 130.25 3.3788C121.901 4.75574 114.428 9.33429 109.433 16.1322C102.059 25.9796 90.0487 42.3362 82.527 52.6015C80.4911 55.3794 81.0488 59.4035 83.9724 61.2359C85.0903 61.9788 86.4524 62.2655 87.7767 62.0367C89.1011 61.8079 90.2865 61.0812 91.0875 60.0068C95.788 53.6192 109.847 34.5238 117.562 24.0608C125.41 13.4226 138.119 11.1987 148.496 18.6241Z" fill="#3380C7"/>
<path d="M156.362 50.4533C155.229 49.6167 153.864 49.1476 152.454 49.11C151.044 49.0723 149.656 49.4679 148.48 50.2429C141.516 54.721 132.05 54.5189 124.034 49.0455C121.049 47.009 118.112 44.9043 115.012 42.6852C113.839 41.8446 112.381 41.4963 110.952 41.7154C109.524 41.9345 108.239 42.7035 107.374 43.8567V43.8567C106.464 45.0746 106.075 46.602 106.293 48.1045C106.512 49.6071 107.319 50.9622 108.54 51.8732C112.305 54.8034 116.215 57.5438 120.257 60.084C125.738 63.4662 132.118 65.1217 138.561 64.8338C145.003 64.5458 151.209 62.3278 156.363 58.4703C156.987 58.0026 157.494 57.3969 157.843 56.701C158.192 56.0051 158.373 55.238 158.373 54.4603C158.373 53.6826 158.192 52.9156 157.843 52.2197C157.494 51.5237 156.987 50.918 156.363 50.4503L156.362 50.4533Z" fill="white" fill-opacity="0.8"/>
<g filter="url(#filter0_bdd)">
<path d="M108.713 98.357C106.249 98.357 104.261 97.629 102.749 96.173C101.237 94.717 100.481 92.813 100.481 90.461C100.481 88.067 101.223 86.156 102.707 84.728C104.205 83.286 106.207 82.565 108.713 82.565C110.015 82.565 111.051 82.796 111.821 83.258C112.465 83.664 112.787 84.189 112.787 84.833C112.787 85.323 112.647 85.722 112.367 86.03C112.087 86.338 111.716 86.492 111.254 86.492C111.002 86.492 110.617 86.422 110.099 86.282C109.581 86.142 109.133 86.072 108.755 86.072C107.467 86.072 106.417 86.464 105.605 87.248C104.793 88.018 104.387 89.089 104.387 90.461C104.387 91.833 104.8 92.911 105.626 93.695C106.466 94.465 107.509 94.85 108.755 94.85C109.189 94.85 109.658 94.78 110.162 94.64C110.666 94.486 111.058 94.409 111.338 94.409C111.772 94.409 112.122 94.563 112.388 94.871C112.654 95.179 112.787 95.55 112.787 95.984C112.787 96.698 112.444 97.258 111.758 97.664C111.016 98.126 110.001 98.357 108.713 98.357ZM121.913 98.336C119.477 98.336 117.545 97.601 116.117 96.131C114.703 94.647 113.996 92.757 113.996 90.461C113.996 88.165 114.71 86.275 116.138 84.791C117.566 83.307 119.491 82.565 121.913 82.565C124.335 82.565 126.26 83.307 127.688 84.791C129.116 86.275 129.83 88.165 129.83 90.461C129.83 92.771 129.123 94.661 127.709 96.131C126.295 97.601 124.363 98.336 121.913 98.336ZM121.913 94.934C123.173 94.934 124.153 94.542 124.853 93.758C125.553 92.96 125.903 91.861 125.903 90.461C125.903 89.047 125.546 87.941 124.832 87.143C124.118 86.345 123.131 85.946 121.871 85.946C120.653 85.946 119.687 86.352 118.973 87.164C118.259 87.962 117.902 89.061 117.902 90.461C117.902 91.847 118.259 92.939 118.973 93.737C119.701 94.535 120.681 94.934 121.913 94.934ZM137.955 98.168H134.28C133.636 98.168 133.146 98 132.81 97.664C132.474 97.314 132.306 96.824 132.306 96.194V84.686C132.306 83.37 132.964 82.712 134.28 82.712H137.955C140.559 82.712 142.561 83.398 143.961 84.77C145.361 86.142 146.061 88.032 146.061 90.44C146.061 92.862 145.361 94.759 143.961 96.131C142.561 97.489 140.559 98.168 137.955 98.168ZM136.086 86.03V94.85H138.039C139.369 94.85 140.384 94.472 141.084 93.716C141.798 92.96 142.155 91.868 142.155 90.44C142.155 88.998 141.798 87.906 141.084 87.164C140.37 86.408 139.355 86.03 138.039 86.03H136.086ZM156.969 98.168H150.543C149.899 98.168 149.409 98 149.073 97.664C148.737 97.314 148.569 96.824 148.569 96.194V84.686C148.569 83.37 149.227 82.712 150.543 82.712H156.906C157.368 82.712 157.739 82.852 158.019 83.132C158.313 83.412 158.46 83.797 158.46 84.287C158.46 84.763 158.32 85.141 158.04 85.421C157.774 85.687 157.41 85.82 156.948 85.82H152.307L152.328 88.844H156.276C156.752 88.844 157.13 88.991 157.41 89.285C157.704 89.579 157.851 89.971 157.851 90.461C157.851 90.951 157.704 91.336 157.41 91.616C157.13 91.896 156.759 92.036 156.297 92.036H152.328L152.349 95.039H156.948C157.41 95.039 157.781 95.179 158.061 95.459C158.355 95.739 158.502 96.124 158.502 96.614C158.502 97.09 158.362 97.468 158.082 97.748C157.802 98.028 157.431 98.168 156.969 98.168Z" fill="white" fill-opacity="0.8"/>
<path d="M20.7528 98.168H17.0778C16.4338 98.168 15.9438 98 15.6078 97.664C15.2718 97.314 15.1038 96.824 15.1038 96.194V84.686C15.1038 83.37 15.7618 82.712 17.0778 82.712H20.7528C23.3568 82.712 25.3588 83.398 26.7588 84.77C28.1588 86.142 28.8588 88.032 28.8588 90.44C28.8588 92.862 28.1588 94.759 26.7588 96.131C25.3588 97.489 23.3568 98.168 20.7528 98.168ZM18.8838 86.03V94.85H20.8368C22.1668 94.85 23.1818 94.472 23.8818 93.716C24.5958 92.96 24.9528 91.868 24.9528 90.44C24.9528 88.998 24.5958 87.906 23.8818 87.164C23.1678 86.408 22.1528 86.03 20.8368 86.03H18.8838ZM39.7665 98.168H33.3405C32.6965 98.168 32.2065 98 31.8705 97.664C31.5345 97.314 31.3665 96.824 31.3665 96.194V84.686C31.3665 83.37 32.0245 82.712 33.3405 82.712H39.7035C40.1655 82.712 40.5365 82.852 40.8165 83.132C41.1105 83.412 41.2575 83.797 41.2575 84.287C41.2575 84.763 41.1175 85.141 40.8375 85.421C40.5715 85.687 40.2075 85.82 39.7455 85.82H35.1045L35.1255 88.844H39.0735C39.5495 88.844 39.9275 88.991 40.2075 89.285C40.5015 89.579 40.6485 89.971 40.6485 90.461C40.6485 90.951 40.5015 91.336 40.2075 91.616C39.9275 91.896 39.5565 92.036 39.0945 92.036H35.1255L35.1465 95.039H39.7455C40.2075 95.039 40.5785 95.179 40.8585 95.459C41.1525 95.739 41.2995 96.124 41.2995 96.614C41.2995 97.09 41.1595 97.468 40.8795 97.748C40.5995 98.028 40.2285 98.168 39.7665 98.168ZM54.9452 93.464C54.9452 95.018 54.3992 96.222 53.3072 97.076C52.2292 97.93 50.7732 98.357 48.9392 98.357C47.0072 98.357 45.4532 97.986 44.2772 97.244C43.4652 96.754 43.0592 96.166 43.0592 95.48C43.0592 94.976 43.2132 94.584 43.5212 94.304C43.8292 94.01 44.2352 93.863 44.7392 93.863C45.0472 93.863 45.6282 94.059 46.4822 94.451C47.3362 94.829 48.1062 95.018 48.7922 95.018C49.4782 95.018 49.9822 94.885 50.3042 94.619C50.6402 94.353 50.8082 94.031 50.8082 93.653C50.8082 93.513 50.7802 93.38 50.7242 93.254C50.6682 93.128 50.5702 93.016 50.4302 92.918C50.3042 92.806 50.1782 92.715 50.0522 92.645C49.9402 92.561 49.7652 92.477 49.5272 92.393C49.2892 92.295 49.0932 92.225 48.9392 92.183C48.7992 92.127 48.5822 92.05 48.2882 91.952C47.9942 91.854 47.7772 91.784 47.6372 91.742C46.9512 91.518 46.3702 91.294 45.8942 91.07C45.4322 90.832 44.9772 90.538 44.5292 90.188C44.0952 89.824 43.7662 89.376 43.5422 88.844C43.3322 88.312 43.2272 87.696 43.2272 86.996C43.2272 85.652 43.7452 84.581 44.7812 83.783C45.8172 82.971 47.2522 82.565 49.0862 82.565C51.0182 82.565 52.4812 82.901 53.4752 83.573C54.0772 83.993 54.3782 84.504 54.3782 85.106C54.3782 85.61 54.2312 86.009 53.9372 86.303C53.6432 86.597 53.2442 86.744 52.7402 86.744C52.3482 86.744 51.7882 86.597 51.0602 86.303C50.3322 85.995 49.6952 85.841 49.1492 85.841C48.5892 85.841 48.1482 85.953 47.8262 86.177C47.5182 86.387 47.3642 86.674 47.3642 87.038C47.3642 87.36 47.5042 87.619 47.7842 87.815C48.0782 88.011 48.5192 88.207 49.1072 88.403C49.1912 88.431 49.3102 88.466 49.4642 88.508C51.2702 89.068 52.4952 89.558 53.1392 89.978C54.3432 90.762 54.9452 91.924 54.9452 93.464ZM59.2814 98.168C58.6654 98.168 58.1894 97.986 57.8534 97.622C57.5314 97.258 57.3704 96.782 57.3704 96.194V84.665C57.3704 84.077 57.5314 83.608 57.8534 83.258C58.1894 82.894 58.6654 82.712 59.2814 82.712C59.8834 82.712 60.3454 82.894 60.6674 83.258C60.9894 83.622 61.1504 84.091 61.1504 84.665V96.194C61.1504 96.768 60.9894 97.244 60.6674 97.622C60.3454 97.986 59.8834 98.168 59.2814 98.168ZM71.8391 98.357C69.3751 98.357 67.3941 97.65 65.8961 96.236C64.3981 94.822 63.6491 92.89 63.6491 90.44C63.6491 87.99 64.3981 86.065 65.8961 84.665C67.3941 83.265 69.4031 82.565 71.9231 82.565C73.5191 82.565 74.7301 82.796 75.5561 83.258C76.2281 83.65 76.5641 84.182 76.5641 84.854C76.5641 85.344 76.4171 85.743 76.1231 86.051C75.8431 86.345 75.4791 86.492 75.0311 86.492C74.8351 86.492 74.4571 86.429 73.8971 86.303C73.3371 86.163 72.7771 86.086 72.2171 86.072C70.8171 86.072 69.6901 86.45 68.8361 87.206C67.9821 87.962 67.5551 89.054 67.5551 90.482C67.5551 91.896 67.9611 92.995 68.7731 93.779C69.5851 94.549 70.6561 94.934 71.9861 94.934C72.4901 94.934 72.9311 94.864 73.3091 94.724V91.616C73.3091 91.084 73.4631 90.65 73.7711 90.314C74.0791 89.978 74.5131 89.81 75.0731 89.81C75.6331 89.81 76.0601 89.978 76.3541 90.314C76.6481 90.65 76.7951 91.084 76.7951 91.616V95.648C76.7951 96.614 76.3681 97.314 75.5141 97.748C74.6601 98.154 73.4351 98.357 71.8391 98.357ZM81.3888 98.168C80.7728 98.168 80.2968 97.986 79.9608 97.622C79.6388 97.258 79.4778 96.782 79.4778 96.194V84.854C79.4778 84.168 79.6458 83.643 79.9818 83.279C80.3178 82.901 80.7728 82.712 81.3468 82.712C81.8508 82.712 82.2708 82.859 82.6068 83.153C82.9568 83.433 83.4468 84.014 84.0768 84.896L89.1168 91.973H89.1588L89.1168 84.665C89.1168 84.091 89.2778 83.622 89.5998 83.258C89.9358 82.894 90.4118 82.712 91.0278 82.712C91.6298 82.712 92.0918 82.894 92.4138 83.258C92.7358 83.608 92.8968 84.077 92.8968 84.665V96.026C92.8968 96.712 92.7288 97.244 92.3928 97.622C92.0568 97.986 91.5878 98.168 90.9858 98.168C90.4398 98.168 89.9498 97.979 89.5158 97.601C89.0818 97.223 88.4658 96.481 87.6678 95.375L83.2578 89.18H83.2158L83.2578 96.194C83.2578 96.768 83.0968 97.244 82.7748 97.622C82.4528 97.986 81.9908 98.168 81.3888 98.168Z" fill="#3380C7"/>
</g>
<defs>
<filter id="filter0_bdd" x="-14.8962" y="52.5649" width="250.793" height="75.792" filterUnits="userSpaceOnUse" color-interpolation-filters="sRGB">
<feFlood flood-opacity="0" result="BackgroundImageFix"/>
<feGaussianBlur in="BackgroundImage" stdDeviation="15"/>
<feComposite in2="SourceAlpha" operator="in" result="effect1_backgroundBlur"/>
<feColorMatrix in="SourceAlpha" type="matrix" values="0 0 0 0 0 0 0 0 0 0 0 0 0 0 0 0 0 0 127 0"/>
<feOffset dy="4.8"/>
<feGaussianBlur stdDeviation="7.2"/>
<feColorMatrix type="matrix" values="0 0 0 0 0 0 0 0 0 0 0 0 0 0 0 0 0 0 0.15 0"/>
<feBlend mode="normal" in2="effect1_backgroundBlur" result="effect2_dropShadow"/>
<feColorMatrix in="SourceAlpha" type="matrix" values="0 0 0 0 0 0 0 0 0 0 0 0 0 0 0 0 0 0 127 0"/>
<feOffset dy="4"/>
<feGaussianBlur stdDeviation="2"/>
<feColorMatrix type="matrix" values="0 0 0 0 0 0 0 0 0 0 0 0 0 0 0 0 0 0 0.25 0"/>
<feBlend mode="normal" in2="effect2_dropShadow" result="effect3_dropShadow"/>
<feBlend mode="normal" in="SourceGraphic" in2="effect3_dropShadow" result="shape"/>
</filter>
<filter id="filter1_bdd" x="70.4811" y="52.5649" width="118.021" height="75.792" filterUnits="userSpaceOnUse" color-interpolation-filters="sRGB">
<feFlood flood-opacity="0" result="BackgroundImageFix"/>
<feGaussianBlur in="BackgroundImage" stdDeviation="15"/>
<feComposite in2="SourceAlpha" operator="in" result="effect1_backgroundBlur"/>
<feColorMatrix in="SourceAlpha" type="matrix" values="0 0 0 0 0 0 0 0 0 0 0 0 0 0 0 0 0 0 127 0"/>
<feOffset dy="4.8"/>
<feGaussianBlur stdDeviation="7.2"/>
<feColorMatrix type="matrix" values="0 0 0 0 0 0 0 0 0 0 0 0 0 0 0 0 0 0 0.15 0"/>
<feBlend mode="normal" in2="effect1_backgroundBlur" result="effect2_dropShadow"/>
<feColorMatrix in="SourceAlpha" type="matrix" values="0 0 0 0 0 0 0 0 0 0 0 0 0 0 0 0 0 0 127 0"/>
<feOffset dy="4"/>
<feGaussianBlur stdDeviation="2"/>
<feColorMatrix type="matrix" values="0 0 0 0 0 0 0 0 0 0 0 0 0 0 0 0 0 0 0.25 0"/>
<feBlend mode="normal" in2="effect2_dropShadow" result="effect3_dropShadow"/>
<feBlend mode="normal" in="SourceGraphic" in2="effect3_dropShadow" result="shape"/>
</filter>
</defs> 
</svg>
