<svg width="237" height="128" viewBox="0 0 237 128" fill="none" xmlns="http://www.w3.org/2000/svg">
<g filter="url(#filter0_bdd)">
<path d="M109.626 31.0679L109.559 31.1534C108.723 32.2686 107.479 33.0121 106.097 33.2237C104.715 33.4354 103.305 33.0982 102.17 32.2848C99.0177 30.0273 96.0357 27.8917 93.0062 25.8231C82.6236 18.7365 69.7991 20.4649 63.1328 29.7768C56.1801 39.4944 57.9374 52.6367 67.0727 59.1731C77.4483 66.5985 90.1581 64.3755 98.0039 53.7349C105.719 43.272 119.778 24.1742 124.478 17.789C124.967 17.1257 125.608 16.5888 126.349 16.2235C127.089 15.8583 127.907 15.6753 128.733 15.6901V15.6901C129.791 15.7066 130.825 16.012 131.72 16.5731C132.616 17.1342 133.339 17.9294 133.811 18.8719C134.284 19.8143 134.487 20.8678 134.399 21.9174C134.311 22.9669 133.934 23.9721 133.311 24.8234C125.807 35.0618 113.595 51.6946 106.133 61.663C101.138 68.461 93.6646 73.0398 85.3163 74.4169C76.968 75.794 68.4099 73.8598 61.478 69.0293C47.0811 58.931 43.0676 39.654 52.3726 25.2871C62.1735 10.1528 81.3205 5.4805 96.7832 14.7817C100.806 17.3093 104.699 20.0365 108.447 22.9529C109.682 23.8752 110.5 25.2471 110.721 26.7681C110.942 28.2891 110.548 29.8353 109.626 31.0679Z" fill="white" fill-opacity="0.8"/>
<g filter="url(#filter1_b)">
<path d="M188.362 60.4533C187.229 59.6166 185.864 59.1476 184.454 59.11C183.044 59.0723 181.656 59.4679 180.48 60.2429C173.515 64.7209 164.05 64.5189 156.034 59.0455C153.049 57.009 150.112 54.9042 147.012 52.6852C145.839 51.8445 144.381 51.4962 142.952 51.7154C141.524 51.9345 140.239 52.7035 139.374 53.8567V53.8567C138.463 55.0746 138.075 56.602 138.293 58.1045C138.512 59.607 139.319 60.9622 140.54 61.8732C144.305 64.8034 148.215 67.5438 152.257 70.084C157.738 73.4661 164.118 75.1217 170.561 74.8337C177.003 74.5458 183.208 72.3278 188.363 68.4703C188.987 68.0026 189.494 67.3969 189.843 66.701C190.192 66.005 190.373 65.238 190.373 64.4603C190.373 63.6826 190.192 62.9155 189.843 62.2196C189.494 61.5237 188.987 60.918 188.363 60.4503L188.362 60.4533Z" fill="white" fill-opacity="0.8"/>
</g>
<path d="M180.496 28.6241L180.535 28.6524C181.645 29.4757 182.992 29.9217 184.376 29.9246C185.761 29.9275 187.11 29.4871 188.223 28.6685L188.314 28.6021C188.922 28.1533 189.421 27.575 189.775 26.9096C190.129 26.2442 190.33 25.5084 190.362 24.756C190.394 24.0036 190.257 23.2535 189.96 22.5606C189.664 21.8678 189.216 21.2495 188.648 20.7511C187.835 20.0563 186.981 19.3949 186.088 18.7669C179.156 13.9362 170.598 12.0019 162.25 13.3788C153.901 14.7558 146.428 19.3343 141.433 26.1322C134.059 35.9796 122.049 52.3362 114.527 62.6015C112.491 65.3794 113.049 69.4035 115.972 71.236C117.09 71.9788 118.452 72.2655 119.777 72.0367C121.101 71.8079 122.286 71.0812 123.087 70.0069C127.788 63.6193 141.847 44.5238 149.562 34.0608C157.41 23.4226 170.119 21.1987 180.496 28.6241Z" fill="#3380C7"/>
</g>
<g filter="url(#filter2_bdd)">
<path d="M124.801 107.664C124.521 108 124.101 108.168 123.541 108.168C122.981 108.168 122.547 108 122.239 107.664C121.945 107.328 121.798 106.887 121.798 106.341V95.505C121.798 94.651 121.987 93.972 122.365 93.468C122.757 92.964 123.324 92.712 124.066 92.712C124.738 92.712 125.284 92.901 125.704 93.279C126.138 93.657 126.565 94.329 126.985 95.295L130.156 102.813H130.198L133.369 95.274C133.789 94.308 134.202 93.643 134.608 93.279C135.028 92.901 135.567 92.712 136.225 92.712C136.981 92.712 137.555 92.964 137.947 93.468C138.339 93.972 138.535 94.651 138.535 95.505V106.341C138.535 106.887 138.388 107.328 138.094 107.664C137.8 108 137.373 108.168 136.813 108.168C136.253 108.168 135.826 108 135.532 107.664C135.238 107.328 135.091 106.887 135.091 106.341V99.138H135.049L132.256 105.732C131.892 106.6 131.556 107.223 131.248 107.601C130.954 107.979 130.597 108.168 130.177 108.168C129.743 108.168 129.372 107.979 129.064 107.601C128.77 107.223 128.441 106.6 128.077 105.732L125.284 99.138H125.242V106.341C125.242 106.887 125.095 107.328 124.801 107.664ZM148.935 108.336C146.499 108.336 144.567 107.601 143.139 106.131C141.725 104.647 141.018 102.757 141.018 100.461C141.018 98.165 141.732 96.275 143.16 94.791C144.588 93.307 146.513 92.565 148.935 92.565C151.357 92.565 153.282 93.307 154.71 94.791C156.138 96.275 156.852 98.165 156.852 100.461C156.852 102.771 156.145 104.661 154.731 106.131C153.317 107.601 151.385 108.336 148.935 108.336ZM148.935 104.934C150.195 104.934 151.175 104.542 151.875 103.758C152.575 102.96 152.925 101.861 152.925 100.461C152.925 99.047 152.568 97.941 151.854 97.143C151.14 96.345 150.153 95.946 148.893 95.946C147.675 95.946 146.709 96.352 145.995 97.164C145.281 97.962 144.924 99.061 144.924 100.461C144.924 101.847 145.281 102.939 145.995 103.737C146.723 104.535 147.703 104.934 148.935 104.934ZM164.893 108H161.302C159.986 108 159.328 107.342 159.328 106.026V94.854C159.328 93.538 159.986 92.88 161.302 92.88H164.977C168.715 92.866 170.584 94.217 170.584 96.933C170.584 97.703 170.395 98.375 170.017 98.949C169.639 99.523 169.114 99.95 168.442 100.23V100.272C170.234 100.916 171.13 102.085 171.13 103.779C171.13 105.291 170.605 106.376 169.555 107.034C168.505 107.678 166.951 108 164.893 108ZM162.94 95.82V99.012H165.04C166.258 99.012 166.867 98.48 166.867 97.416C166.867 96.352 166.209 95.82 164.893 95.82H162.94ZM162.94 101.658V105.081H165.061C165.817 105.081 166.391 104.962 166.783 104.724C167.175 104.472 167.371 104.024 167.371 103.38C167.371 102.75 167.182 102.309 166.804 102.057C166.426 101.791 165.88 101.658 165.166 101.658H162.94ZM175.512 108.168C174.896 108.168 174.42 107.986 174.084 107.622C173.762 107.258 173.601 106.782 173.601 106.194V94.665C173.601 94.077 173.762 93.608 174.084 93.258C174.42 92.894 174.896 92.712 175.512 92.712C176.114 92.712 176.576 92.894 176.898 93.258C177.22 93.622 177.381 94.091 177.381 94.665V106.194C177.381 106.768 177.22 107.244 176.898 107.622C176.576 107.986 176.114 108.168 175.512 108.168ZM188.385 108.168H182.589C181.945 108.168 181.455 108 181.119 107.664C180.783 107.314 180.615 106.824 180.615 106.194V94.602C180.615 94.056 180.79 93.608 181.14 93.258C181.504 92.894 181.966 92.712 182.526 92.712C183.072 92.712 183.52 92.887 183.87 93.237C184.22 93.587 184.395 94.035 184.395 94.581L184.416 104.682H188.364C188.882 104.682 189.295 104.843 189.603 105.165C189.925 105.473 190.086 105.9 190.086 106.446C190.086 106.978 189.925 107.398 189.603 107.706C189.295 108.014 188.889 108.168 188.385 108.168ZM200.397 108.168H193.971C193.327 108.168 192.837 108 192.501 107.664C192.165 107.314 191.997 106.824 191.997 106.194V94.686C191.997 93.37 192.655 92.712 193.971 92.712H200.334C200.796 92.712 201.167 92.852 201.447 93.132C201.741 93.412 201.888 93.797 201.888 94.287C201.888 94.763 201.748 95.141 201.468 95.421C201.202 95.687 200.838 95.82 200.376 95.82H195.735L195.756 98.844H199.704C200.18 98.844 200.558 98.991 200.838 99.285C201.132 99.579 201.279 99.971 201.279 100.461C201.279 100.951 201.132 101.336 200.838 101.616C200.558 101.896 200.187 102.036 199.725 102.036H195.756L195.777 105.039H200.376C200.838 105.039 201.209 105.179 201.489 105.459C201.783 105.739 201.93 106.124 201.93 106.614C201.93 107.09 201.79 107.468 201.51 107.748C201.23 108.028 200.859 108.168 200.397 108.168Z" fill="white" fill-opacity="0.8"/>
<path d="M41.4584 108.168H37.7834C37.1394 108.168 36.6494 108 36.3134 107.664C35.9774 107.314 35.8094 106.824 35.8094 106.194V94.686C35.8094 93.37 36.4674 92.712 37.7834 92.712H41.4584C44.0624 92.712 46.0644 93.398 47.4644 94.77C48.8644 96.142 49.5644 98.032 49.5644 100.44C49.5644 102.862 48.8644 104.759 47.4644 106.131C46.0644 107.489 44.0624 108.168 41.4584 108.168ZM39.5894 96.03V104.85H41.5424C42.8724 104.85 43.8874 104.472 44.5874 103.716C45.3014 102.96 45.6584 101.868 45.6584 100.44C45.6584 98.998 45.3014 97.906 44.5874 97.164C43.8734 96.408 42.8584 96.03 41.5424 96.03H39.5894ZM60.4721 108.168H54.0461C53.4021 108.168 52.9121 108 52.5761 107.664C52.2401 107.314 52.0721 106.824 52.0721 106.194V94.686C52.0721 93.37 52.7301 92.712 54.0461 92.712H60.4091C60.8711 92.712 61.2421 92.852 61.5221 93.132C61.8161 93.412 61.9631 93.797 61.9631 94.287C61.9631 94.763 61.8231 95.141 61.5431 95.421C61.2771 95.687 60.9131 95.82 60.4511 95.82H55.8101L55.8311 98.844H59.7791C60.2551 98.844 60.6331 98.991 60.9131 99.285C61.2071 99.579 61.3541 99.971 61.3541 100.461C61.3541 100.951 61.2071 101.336 60.9131 101.616C60.6331 101.896 60.2621 102.036 59.8001 102.036H55.8311L55.8521 105.039H60.4511C60.9131 105.039 61.2841 105.179 61.5641 105.459C61.8581 105.739 62.0051 106.124 62.0051 106.614C62.0051 107.09 61.8651 107.468 61.5851 107.748C61.3051 108.028 60.9341 108.168 60.4721 108.168ZM75.6508 103.464C75.6508 105.018 75.1048 106.222 74.0128 107.076C72.9348 107.93 71.4788 108.357 69.6448 108.357C67.7128 108.357 66.1588 107.986 64.9828 107.244C64.1708 106.754 63.7648 106.166 63.7648 105.48C63.7648 104.976 63.9188 104.584 64.2268 104.304C64.5348 104.01 64.9408 103.863 65.4448 103.863C65.7528 103.863 66.3338 104.059 67.1878 104.451C68.0418 104.829 68.8118 105.018 69.4978 105.018C70.1838 105.018 70.6878 104.885 71.0098 104.619C71.3458 104.353 71.5138 104.031 71.5138 103.653C71.5138 103.513 71.4858 103.38 71.4298 103.254C71.3738 103.128 71.2758 103.016 71.1358 102.918C71.0098 102.806 70.8838 102.715 70.7578 102.645C70.6458 102.561 70.4708 102.477 70.2328 102.393C69.9948 102.295 69.7988 102.225 69.6448 102.183C69.5048 102.127 69.2878 102.05 68.9938 101.952C68.6998 101.854 68.4828 101.784 68.3428 101.742C67.6568 101.518 67.0758 101.294 66.5998 101.07C66.1378 100.832 65.6828 100.538 65.2348 100.188C64.8008 99.824 64.4718 99.376 64.2478 98.844C64.0378 98.312 63.9328 97.696 63.9328 96.996C63.9328 95.652 64.4508 94.581 65.4868 93.783C66.5228 92.971 67.9578 92.565 69.7918 92.565C71.7238 92.565 73.1868 92.901 74.1808 93.573C74.7828 93.993 75.0838 94.504 75.0838 95.106C75.0838 95.61 74.9368 96.009 74.6428 96.303C74.3488 96.597 73.9498 96.744 73.4458 96.744C73.0538 96.744 72.4938 96.597 71.7658 96.303C71.0378 95.995 70.4008 95.841 69.8548 95.841C69.2948 95.841 68.8538 95.953 68.5318 96.177C68.2238 96.387 68.0698 96.674 68.0698 97.038C68.0698 97.36 68.2098 97.619 68.4898 97.815C68.7838 98.011 69.2248 98.207 69.8128 98.403C69.8968 98.431 70.0158 98.466 70.1698 98.508C71.9758 99.068 73.2008 99.558 73.8448 99.978C75.0488 100.762 75.6508 101.924 75.6508 103.464ZM79.987 108.168C79.371 108.168 78.895 107.986 78.559 107.622C78.237 107.258 78.076 106.782 78.076 106.194V94.665C78.076 94.077 78.237 93.608 78.559 93.258C78.895 92.894 79.371 92.712 79.987 92.712C80.589 92.712 81.051 92.894 81.373 93.258C81.695 93.622 81.856 94.091 81.856 94.665V106.194C81.856 106.768 81.695 107.244 81.373 107.622C81.051 107.986 80.589 108.168 79.987 108.168ZM92.5447 108.357C90.0807 108.357 88.0997 107.65 86.6017 106.236C85.1037 104.822 84.3547 102.89 84.3547 100.44C84.3547 97.99 85.1037 96.065 86.6017 94.665C88.0997 93.265 90.1087 92.565 92.6287 92.565C94.2247 92.565 95.4357 92.796 96.2617 93.258C96.9337 93.65 97.2697 94.182 97.2697 94.854C97.2697 95.344 97.1227 95.743 96.8287 96.051C96.5487 96.345 96.1847 96.492 95.7367 96.492C95.5407 96.492 95.1627 96.429 94.6027 96.303C94.0427 96.163 93.4827 96.086 92.9227 96.072C91.5227 96.072 90.3957 96.45 89.5417 97.206C88.6877 97.962 88.2607 99.054 88.2607 100.482C88.2607 101.896 88.6667 102.995 89.4787 103.779C90.2907 104.549 91.3617 104.934 92.6917 104.934C93.1957 104.934 93.6367 104.864 94.0147 104.724V101.616C94.0147 101.084 94.1687 100.65 94.4767 100.314C94.7847 99.978 95.2187 99.81 95.7787 99.81C96.3387 99.81 96.7657 99.978 97.0597 100.314C97.3537 100.65 97.5007 101.084 97.5007 101.616V105.648C97.5007 106.614 97.0737 107.314 96.2197 107.748C95.3657 108.154 94.1407 108.357 92.5447 108.357ZM102.094 108.168C101.478 108.168 101.002 107.986 100.666 107.622C100.344 107.258 100.183 106.782 100.183 106.194V94.854C100.183 94.168 100.351 93.643 100.687 93.279C101.023 92.901 101.478 92.712 102.052 92.712C102.556 92.712 102.976 92.859 103.312 93.153C103.662 93.433 104.152 94.014 104.782 94.896L109.822 101.973H109.864L109.822 94.665C109.822 94.091 109.983 93.622 110.305 93.258C110.641 92.894 111.117 92.712 111.733 92.712C112.335 92.712 112.797 92.894 113.119 93.258C113.441 93.608 113.602 94.077 113.602 94.665V106.026C113.602 106.712 113.434 107.244 113.098 107.622C112.762 107.986 112.293 108.168 111.691 108.168C111.145 108.168 110.655 107.979 110.221 107.601C109.787 107.223 109.171 106.481 108.373 105.375L103.963 99.18H103.921L103.963 106.194C103.963 106.768 103.802 107.244 103.48 107.622C103.158 107.986 102.696 108.168 102.094 108.168Z" fill="#3380C7"/>
</g>
<defs>
<filter id="filter0_bdd" x="17.364" y="-20" width="203.009" height="124.866" filterUnits="userSpaceOnUse" color-interpolation-filters="sRGB">
<feFlood flood-opacity="0" result="BackgroundImageFix"/>
<feGaussianBlur in="BackgroundImage" stdDeviation="15"/>
<feComposite in2="SourceAlpha" operator="in" result="effect1_backgroundBlur"/>
<feColorMatrix in="SourceAlpha" type="matrix" values="0 0 0 0 0 0 0 0 0 0 0 0 0 0 0 0 0 0 127 0"/>
<feOffset dy="4.8"/>
<feGaussianBlur stdDeviation="7.2"/>
<feColorMatrix type="matrix" values="0 0 0 0 0 0 0 0 0 0 0 0 0 0 0 0 0 0 0.15 0"/>
<feBlend mode="normal" in2="effect1_backgroundBlur" result="effect2_dropShadow"/>
<feColorMatrix in="SourceAlpha" type="matrix" values="0 0 0 0 0 0 0 0 0 0 0 0 0 0 0 0 0 0 127 0"/>
<feOffset dy="4"/>
<feGaussianBlur stdDeviation="2"/>
<feColorMatrix type="matrix" values="0 0 0 0 0 0 0 0 0 0 0 0 0 0 0 0 0 0 0.25 0"/>
<feBlend mode="normal" in2="effect2_dropShadow" result="effect3_dropShadow"/>
<feBlend mode="normal" in="SourceGraphic" in2="effect3_dropShadow" result="shape"/>
</filter>
<filter id="filter1_b" x="109.314" y="8.94559" width="85.0523" height="67.1679" filterUnits="userSpaceOnUse" color-interpolation-filters="sRGB">
<feFlood flood-opacity="0" result="BackgroundImageFix"/>
<feGaussianBlur in="BackgroundImage" stdDeviation="2"/>
<feComposite in2="SourceAlpha" operator="in" result="effect1_backgroundBlur"/>
<feBlend mode="normal" in="SourceGraphic" in2="effect1_backgroundBlur" result="shape"/>
</filter>
<filter id="filter2_bdd" x="5.80939" y="62.565" width="226.12" height="75.792" filterUnits="userSpaceOnUse" color-interpolation-filters="sRGB">
<feFlood flood-opacity="0" result="BackgroundImageFix"/>
<feGaussianBlur in="BackgroundImage" stdDeviation="15"/>
<feComposite in2="SourceAlpha" operator="in" result="effect1_backgroundBlur"/>
<feColorMatrix in="SourceAlpha" type="matrix" values="0 0 0 0 0 0 0 0 0 0 0 0 0 0 0 0 0 0 127 0"/>
<feOffset dy="4.8"/>
<feGaussianBlur stdDeviation="7.2"/>
<feColorMatrix type="matrix" values="0 0 0 0 0 0 0 0 0 0 0 0 0 0 0 0 0 0 0.15 0"/>
<feBlend mode="normal" in2="effect1_backgroundBlur" result="effect2_dropShadow"/>
<feColorMatrix in="SourceAlpha" type="matrix" values="0 0 0 0 0 0 0 0 0 0 0 0 0 0 0 0 0 0 127 0"/>
<feOffset dy="4"/>
<feGaussianBlur stdDeviation="2"/>
<feColorMatrix type="matrix" values="0 0 0 0 0 0 0 0 0 0 0 0 0 0 0 0 0 0 0.25 0"/>
<feBlend mode="normal" in2="effect2_dropShadow" result="effect3_dropShadow"/>
<feBlend mode="normal" in="SourceGraphic" in2="effect3_dropShadow" result="shape"/>
</filter>
</defs>
</svg>
