<svg width="237" height="128" viewBox="0 0 237 128" fill="none" xmlns="http://www.w3.org/2000/svg">
<g filter="url(#filter0_bdd)">
<path d="M109.626 31.0679L109.559 31.1534C108.723 32.2686 107.479 33.0121 106.097 33.2237C104.715 33.4354 103.305 33.0982 102.17 32.2848C99.0177 30.0273 96.0357 27.8917 93.0062 25.8231C82.6236 18.7365 69.7991 20.4649 63.1328 29.7768C56.1801 39.4944 57.9374 52.6367 67.0727 59.1731C77.4483 66.5985 90.1581 64.3755 98.0039 53.7349C105.719 43.272 119.778 24.1742 124.478 17.789C124.967 17.1257 125.608 16.5888 126.349 16.2235C127.089 15.8583 127.907 15.6753 128.733 15.6901V15.6901C129.791 15.7066 130.825 16.012 131.72 16.5731C132.616 17.1342 133.339 17.9294 133.811 18.8719C134.284 19.8143 134.487 20.8678 134.399 21.9174C134.311 22.9669 133.934 23.9721 133.311 24.8234C125.807 35.0618 113.595 51.6946 106.133 61.663C101.138 68.461 93.6646 73.0398 85.3163 74.4169C76.968 75.794 68.4099 73.8598 61.478 69.0293C47.0811 58.931 43.0676 39.654 52.3726 25.2871C62.1735 10.1528 81.3205 5.4805 96.7832 14.7817C100.806 17.3093 104.699 20.0365 108.447 22.9529C109.682 23.8752 110.5 25.2471 110.721 26.7681C110.942 28.2891 110.548 29.8353 109.626 31.0679Z" fill="white" fill-opacity="0.8"/>
<g filter="url(#filter1_b)">
<path d="M188.362 60.4533C187.229 59.6167 185.864 59.1476 184.454 59.11C183.044 59.0723 181.656 59.4679 180.48 60.2429C173.515 64.721 164.05 64.5189 156.034 59.0455C153.049 57.009 150.112 54.9043 147.012 52.6852C145.839 51.8446 144.381 51.4963 142.952 51.7154C141.524 51.9345 140.239 52.7035 139.374 53.8567V53.8567C138.463 55.0746 138.075 56.602 138.293 58.1045C138.512 59.6071 139.319 60.9622 140.54 61.8732C144.305 64.8034 148.215 67.5438 152.257 70.084C157.738 73.4662 164.118 75.1217 170.561 74.8338C177.003 74.5458 183.208 72.3278 188.363 68.4703C188.987 68.0026 189.494 67.3969 189.843 66.701C190.192 66.0051 190.373 65.238 190.373 64.4603C190.373 63.6826 190.192 62.9156 189.843 62.2197C189.494 61.5237 188.987 60.918 188.363 60.4503L188.362 60.4533Z" fill="white" fill-opacity="0.8"/>
</g>
<path d="M180.496 28.6241L180.535 28.6524C181.645 29.4756 182.992 29.9216 184.376 29.9245C185.761 29.9274 187.11 29.4871 188.223 28.6685L188.314 28.6021C188.922 28.1533 189.421 27.575 189.775 26.9096C190.129 26.2442 190.33 25.5084 190.362 24.756C190.394 24.0035 190.257 23.2535 189.96 22.5606C189.664 21.8677 189.216 21.2495 188.648 20.7511C187.835 20.0563 186.981 19.3949 186.088 18.7669C179.156 13.9362 170.598 12.0019 162.25 13.3788C153.901 14.7557 146.428 19.3343 141.433 26.1322C134.059 35.9796 122.049 52.3362 114.527 62.6015C112.491 65.3794 113.049 69.4035 115.972 71.2359C117.09 71.9788 118.452 72.2655 119.777 72.0367C121.101 71.8079 122.286 71.0812 123.087 70.0068C127.788 63.6192 141.847 44.5238 149.562 34.0608C157.41 23.4226 170.119 21.1987 180.496 28.6241Z" fill="#3380C7"/>
</g>
<g filter="url(#filter2_bdd)">
<path d="M154.083 105.753C154.307 106.383 154.251 106.943 153.915 107.433C153.593 107.923 153.068 108.168 152.34 108.168C151.836 108.168 151.451 108.042 151.185 107.79C150.933 107.524 150.716 107.118 150.534 106.572L150.051 105.123H144.717L144.234 106.572C144.052 107.118 143.828 107.524 143.562 107.79C143.31 108.042 142.932 108.168 142.428 108.168C141.7 108.168 141.168 107.923 140.832 107.433C140.51 106.943 140.461 106.383 140.685 105.753L144.276 95.715C144.668 94.637 145.074 93.867 145.494 93.405C145.928 92.943 146.558 92.712 147.384 92.712C148.21 92.712 148.833 92.943 149.253 93.405C149.673 93.853 150.079 94.63 150.471 95.736L154.083 105.753ZM145.725 102.057H149.022L147.384 97.206H147.342L145.725 102.057ZM158.286 108.168C157.67 108.168 157.194 107.986 156.858 107.622C156.536 107.258 156.375 106.782 156.375 106.194V94.686C156.375 94.042 156.543 93.552 156.879 93.216C157.215 92.866 157.705 92.698 158.349 92.712H162.129C164.131 92.712 165.671 93.146 166.749 94.014C167.841 94.868 168.387 96.177 168.387 97.941C168.387 100.013 167.547 101.525 165.867 102.477L167.568 105.186C167.876 105.676 168.03 106.124 168.03 106.53C168.03 106.978 167.834 107.363 167.442 107.685C167.064 108.007 166.588 108.168 166.014 108.168C165.636 108.168 165.314 108.056 165.048 107.832C164.796 107.608 164.537 107.272 164.271 106.824L162.024 103.149H160.155V106.194C160.155 106.768 159.994 107.244 159.672 107.622C159.35 107.986 158.888 108.168 158.286 108.168ZM160.155 95.841V100.104H162.423C163.151 100.104 163.711 99.922 164.103 99.558C164.495 99.194 164.691 98.669 164.691 97.983C164.691 97.255 164.46 96.716 163.998 96.366C163.536 96.016 162.913 95.841 162.129 95.841H160.155ZM176.025 108.168C175.409 108.168 174.933 107.986 174.597 107.622C174.275 107.258 174.114 106.782 174.114 106.194L174.093 96.198H170.922C170.418 96.198 170.005 96.037 169.683 95.715C169.375 95.393 169.221 94.98 169.221 94.476C169.221 93.958 169.382 93.538 169.704 93.216C170.026 92.88 170.446 92.712 170.964 92.712H181.044C181.562 92.712 181.982 92.88 182.304 93.216C182.626 93.538 182.787 93.958 182.787 94.476C182.787 94.98 182.626 95.393 182.304 95.715C181.982 96.037 181.569 96.198 181.065 96.198H177.915L177.894 106.194C177.894 106.768 177.733 107.244 177.411 107.622C177.089 107.986 176.627 108.168 176.025 108.168Z" fill="white" fill-opacity="0.8"/>
<path d="M61.2484 108.168H57.5734C56.9294 108.168 56.4394 108 56.1034 107.664C55.7674 107.314 55.5994 106.824 55.5994 106.194V94.686C55.5994 93.37 56.2574 92.712 57.5734 92.712H61.2484C63.8524 92.712 65.8544 93.398 67.2544 94.77C68.6544 96.142 69.3544 98.032 69.3544 100.44C69.3544 102.862 68.6544 104.759 67.2544 106.131C65.8544 107.489 63.8524 108.168 61.2484 108.168ZM59.3794 96.03V104.85H61.3324C62.6624 104.85 63.6774 104.472 64.3774 103.716C65.0914 102.96 65.4484 101.868 65.4484 100.44C65.4484 98.998 65.0914 97.906 64.3774 97.164C63.6634 96.408 62.6484 96.03 61.3324 96.03H59.3794ZM80.2621 108.168H73.8361C73.1921 108.168 72.7021 108 72.3661 107.664C72.0301 107.314 71.8621 106.824 71.8621 106.194V94.686C71.8621 93.37 72.5201 92.712 73.8361 92.712H80.1991C80.6611 92.712 81.0321 92.852 81.3121 93.132C81.6061 93.412 81.7531 93.797 81.7531 94.287C81.7531 94.763 81.6131 95.141 81.3331 95.421C81.0671 95.687 80.7031 95.82 80.2411 95.82H75.6001L75.6211 98.844H79.5691C80.0451 98.844 80.4231 98.991 80.7031 99.285C80.9971 99.579 81.1441 99.971 81.1441 100.461C81.1441 100.951 80.9971 101.336 80.7031 101.616C80.4231 101.896 80.0521 102.036 79.5901 102.036H75.6211L75.6421 105.039H80.2411C80.7031 105.039 81.0741 105.179 81.3541 105.459C81.6481 105.739 81.7951 106.124 81.7951 106.614C81.7951 107.09 81.6551 107.468 81.3751 107.748C81.0951 108.028 80.7241 108.168 80.2621 108.168ZM95.4409 103.464C95.4409 105.018 94.8949 106.222 93.8029 107.076C92.7249 107.93 91.2689 108.357 89.4349 108.357C87.5029 108.357 85.9489 107.986 84.7729 107.244C83.9609 106.754 83.5549 106.166 83.5549 105.48C83.5549 104.976 83.7089 104.584 84.0169 104.304C84.3249 104.01 84.7309 103.863 85.2349 103.863C85.5429 103.863 86.1239 104.059 86.9779 104.451C87.8319 104.829 88.6019 105.018 89.2879 105.018C89.9739 105.018 90.4779 104.885 90.7999 104.619C91.1359 104.353 91.3039 104.031 91.3039 103.653C91.3039 103.513 91.2759 103.38 91.2199 103.254C91.1639 103.128 91.0659 103.016 90.9259 102.918C90.7999 102.806 90.6739 102.715 90.5479 102.645C90.4359 102.561 90.2609 102.477 90.0229 102.393C89.7849 102.295 89.5889 102.225 89.4349 102.183C89.2949 102.127 89.0779 102.05 88.7839 101.952C88.4899 101.854 88.2729 101.784 88.1329 101.742C87.4469 101.518 86.8659 101.294 86.3899 101.07C85.9279 100.832 85.4729 100.538 85.0249 100.188C84.5909 99.824 84.2619 99.376 84.0379 98.844C83.8279 98.312 83.7229 97.696 83.7229 96.996C83.7229 95.652 84.2409 94.581 85.2769 93.783C86.3129 92.971 87.7479 92.565 89.5819 92.565C91.5139 92.565 92.9769 92.901 93.9709 93.573C94.5729 93.993 94.8739 94.504 94.8739 95.106C94.8739 95.61 94.7269 96.009 94.4329 96.303C94.1389 96.597 93.7399 96.744 93.2359 96.744C92.8439 96.744 92.2839 96.597 91.5559 96.303C90.8279 95.995 90.1909 95.841 89.6449 95.841C89.0849 95.841 88.6439 95.953 88.3219 96.177C88.0139 96.387 87.8599 96.674 87.8599 97.038C87.8599 97.36 87.9999 97.619 88.2799 97.815C88.5739 98.011 89.0149 98.207 89.6029 98.403C89.6869 98.431 89.8059 98.466 89.9599 98.508C91.7659 99.068 92.9909 99.558 93.6349 99.978C94.8389 100.762 95.4409 101.924 95.4409 103.464ZM99.777 108.168C99.161 108.168 98.685 107.986 98.349 107.622C98.027 107.258 97.866 106.782 97.866 106.194V94.665C97.866 94.077 98.027 93.608 98.349 93.258C98.685 92.894 99.161 92.712 99.777 92.712C100.379 92.712 100.841 92.894 101.163 93.258C101.485 93.622 101.646 94.091 101.646 94.665V106.194C101.646 106.768 101.485 107.244 101.163 107.622C100.841 107.986 100.379 108.168 99.777 108.168ZM112.335 108.357C109.871 108.357 107.89 107.65 106.392 106.236C104.894 104.822 104.145 102.89 104.145 100.44C104.145 97.99 104.894 96.065 106.392 94.665C107.89 93.265 109.899 92.565 112.419 92.565C114.015 92.565 115.226 92.796 116.052 93.258C116.724 93.65 117.06 94.182 117.06 94.854C117.06 95.344 116.913 95.743 116.619 96.051C116.339 96.345 115.975 96.492 115.527 96.492C115.331 96.492 114.953 96.429 114.393 96.303C113.833 96.163 113.273 96.086 112.713 96.072C111.313 96.072 110.186 96.45 109.332 97.206C108.478 97.962 108.051 99.054 108.051 100.482C108.051 101.896 108.457 102.995 109.269 103.779C110.081 104.549 111.152 104.934 112.482 104.934C112.986 104.934 113.427 104.864 113.805 104.724V101.616C113.805 101.084 113.959 100.65 114.267 100.314C114.575 99.978 115.009 99.81 115.569 99.81C116.129 99.81 116.556 99.978 116.85 100.314C117.144 100.65 117.291 101.084 117.291 101.616V105.648C117.291 106.614 116.864 107.314 116.01 107.748C115.156 108.154 113.931 108.357 112.335 108.357ZM121.884 108.168C121.268 108.168 120.792 107.986 120.456 107.622C120.134 107.258 119.973 106.782 119.973 106.194V94.854C119.973 94.168 120.141 93.643 120.477 93.279C120.813 92.901 121.268 92.712 121.842 92.712C122.346 92.712 122.766 92.859 123.102 93.153C123.452 93.433 123.942 94.014 124.572 94.896L129.612 101.973H129.654L129.612 94.665C129.612 94.091 129.773 93.622 130.095 93.258C130.431 92.894 130.907 92.712 131.523 92.712C132.125 92.712 132.587 92.894 132.909 93.258C133.231 93.608 133.392 94.077 133.392 94.665V106.026C133.392 106.712 133.224 107.244 132.888 107.622C132.552 107.986 132.083 108.168 131.481 108.168C130.935 108.168 130.445 107.979 130.011 107.601C129.577 107.223 128.961 106.481 128.163 105.375L123.753 99.18H123.711L123.753 106.194C123.753 106.768 123.592 107.244 123.27 107.622C122.948 107.986 122.486 108.168 121.884 108.168Z" fill="#3380C7"/>
</g>
<defs>
<filter id="filter0_bdd" x="17.364" y="-20" width="203.009" height="124.866" filterUnits="userSpaceOnUse" color-interpolation-filters="sRGB">
<feFlood flood-opacity="0" result="BackgroundImageFix"/>
<feGaussianBlur in="BackgroundImage" stdDeviation="15"/>
<feComposite in2="SourceAlpha" operator="in" result="effect1_backgroundBlur"/>
<feColorMatrix in="SourceAlpha" type="matrix" values="0 0 0 0 0 0 0 0 0 0 0 0 0 0 0 0 0 0 127 0"/>
<feOffset dy="4.8"/>
<feGaussianBlur stdDeviation="7.2"/>
<feColorMatrix type="matrix" values="0 0 0 0 0 0 0 0 0 0 0 0 0 0 0 0 0 0 0.15 0"/>
<feBlend mode="normal" in2="effect1_backgroundBlur" result="effect2_dropShadow"/>
<feColorMatrix in="SourceAlpha" type="matrix" values="0 0 0 0 0 0 0 0 0 0 0 0 0 0 0 0 0 0 127 0"/>
<feOffset dy="4"/>
<feGaussianBlur stdDeviation="2"/>
<feColorMatrix type="matrix" values="0 0 0 0 0 0 0 0 0 0 0 0 0 0 0 0 0 0 0.25 0"/>
<feBlend mode="normal" in2="effect2_dropShadow" result="effect3_dropShadow"/>
<feBlend mode="normal" in="SourceGraphic" in2="effect3_dropShadow" result="shape"/>
</filter>
<filter id="filter1_b" x="109.314" y="8.94556" width="85.0523" height="67.1679" filterUnits="userSpaceOnUse" color-interpolation-filters="sRGB">
<feFlood flood-opacity="0" result="BackgroundImageFix"/>
<feGaussianBlur in="BackgroundImage" stdDeviation="2"/>
<feComposite in2="SourceAlpha" operator="in" result="effect1_backgroundBlur"/>
<feBlend mode="normal" in="SourceGraphic" in2="effect1_backgroundBlur" result="shape"/>
</filter>
<filter id="filter2_bdd" x="25.5994" y="62.565" width="187.188" height="75.792" filterUnits="userSpaceOnUse" color-interpolation-filters="sRGB">
<feFlood flood-opacity="0" result="BackgroundImageFix"/>
<feGaussianBlur in="BackgroundImage" stdDeviation="15"/>
<feComposite in2="SourceAlpha" operator="in" result="effect1_backgroundBlur"/>
<feColorMatrix in="SourceAlpha" type="matrix" values="0 0 0 0 0 0 0 0 0 0 0 0 0 0 0 0 0 0 127 0"/>
<feOffset dy="4.8"/>
<feGaussianBlur stdDeviation="7.2"/>
<feColorMatrix type="matrix" values="0 0 0 0 0 0 0 0 0 0 0 0 0 0 0 0 0 0 0.15 0"/>
<feBlend mode="normal" in2="effect1_backgroundBlur" result="effect2_dropShadow"/>
<feColorMatrix in="SourceAlpha" type="matrix" values="0 0 0 0 0 0 0 0 0 0 0 0 0 0 0 0 0 0 127 0"/>
<feOffset dy="4"/>
<feGaussianBlur stdDeviation="2"/>
<feColorMatrix type="matrix" values="0 0 0 0 0 0 0 0 0 0 0 0 0 0 0 0 0 0 0.25 0"/>
<feBlend mode="normal" in2="effect2_dropShadow" result="effect3_dropShadow"/>
<feBlend mode="normal" in="SourceGraphic" in2="effect3_dropShadow" result="shape"/>
</filter>
</defs>
</svg>
