<svg width="237" height="128" viewBox="0 0 237 128" fill="none" xmlns="http://www.w3.org/2000/svg">
<g filter="url(#filter0_bdd)">
<path d="M109.626 31.0679L109.559 31.1534C108.723 32.2686 107.479 33.0121 106.097 33.2237C104.715 33.4354 103.305 33.0982 102.17 32.2848C99.0177 30.0273 96.0357 27.8917 93.0062 25.8231C82.6236 18.7365 69.7991 20.4649 63.1328 29.7768C56.1801 39.4944 57.9374 52.6367 67.0727 59.1731C77.4483 66.5985 90.1581 64.3755 98.0039 53.7349C105.719 43.272 119.778 24.1742 124.478 17.789C124.967 17.1257 125.608 16.5888 126.349 16.2235C127.089 15.8583 127.907 15.6753 128.733 15.6901V15.6901C129.791 15.7066 130.824 16.012 131.72 16.5731C132.616 17.1342 133.339 17.9294 133.811 18.8719C134.284 19.8143 134.487 20.8678 134.399 21.9174C134.311 22.9669 133.934 23.9721 133.311 24.8234C125.807 35.0618 113.595 51.6946 106.133 61.663C101.138 68.461 93.6646 73.0398 85.3163 74.4169C76.968 75.794 68.4099 73.8598 61.478 69.0293C47.0811 58.931 43.0676 39.654 52.3726 25.2871C62.1735 10.1528 81.3205 5.4805 96.7832 14.7817C100.806 17.3093 104.699 20.0365 108.447 22.9529C109.682 23.8752 110.5 25.2471 110.721 26.7681C110.942 28.2891 110.548 29.8353 109.626 31.0679Z" fill="white" fill-opacity="0.8"/>
<g filter="url(#filter1_b)">
<path d="M188.362 60.4533C187.229 59.6166 185.864 59.1476 184.454 59.11C183.044 59.0723 181.656 59.4679 180.48 60.2429C173.515 64.7209 164.05 64.5189 156.034 59.0455C153.049 57.009 150.112 54.9042 147.012 52.6852C145.839 51.8445 144.381 51.4962 142.952 51.7154C141.524 51.9345 140.239 52.7035 139.374 53.8567V53.8567C138.463 55.0746 138.075 56.602 138.293 58.1045C138.512 59.607 139.319 60.9622 140.54 61.8732C144.305 64.8034 148.215 67.5438 152.257 70.084C157.738 73.4661 164.118 75.1217 170.561 74.8337C177.003 74.5458 183.208 72.3278 188.363 68.4703C188.987 68.0026 189.494 67.3969 189.843 66.701C190.192 66.005 190.373 65.238 190.373 64.4603C190.373 63.6826 190.192 62.9155 189.843 62.2196C189.494 61.5237 188.987 60.918 188.363 60.4503L188.362 60.4533Z" fill="white" fill-opacity="0.8"/>
</g>
<path d="M180.496 28.6241L180.535 28.6524C181.645 29.4757 182.992 29.9217 184.376 29.9246C185.761 29.9275 187.11 29.4871 188.223 28.6685L188.314 28.6021C188.922 28.1533 189.421 27.575 189.775 26.9096C190.129 26.2442 190.33 25.5084 190.362 24.756C190.394 24.0036 190.257 23.2535 189.96 22.5606C189.664 21.8678 189.216 21.2495 188.648 20.7511C187.835 20.0563 186.981 19.3949 186.088 18.7669C179.156 13.9362 170.598 12.0019 162.25 13.3788C153.901 14.7558 146.428 19.3343 141.433 26.1322C134.059 35.9796 122.049 52.3362 114.527 62.6015C112.491 65.3794 113.049 69.4035 115.972 71.236C117.09 71.9788 118.452 72.2655 119.777 72.0367C121.101 71.8079 122.286 71.0812 123.087 70.0069C127.788 63.6193 141.847 44.5238 149.562 34.0608C157.41 23.4226 170.119 21.1987 180.496 28.6241Z" fill="#3380C7"/>
</g>
<g filter="url(#filter2_bdd)">
<path d="M140.718 108.357C138.254 108.357 136.266 107.629 134.754 106.173C133.242 104.717 132.486 102.813 132.486 100.461C132.486 98.067 133.228 96.156 134.712 94.728C136.21 93.286 138.212 92.565 140.718 92.565C142.02 92.565 143.056 92.796 143.826 93.258C144.47 93.664 144.792 94.189 144.792 94.833C144.792 95.323 144.652 95.722 144.372 96.03C144.092 96.338 143.721 96.492 143.259 96.492C143.007 96.492 142.622 96.422 142.104 96.282C141.586 96.142 141.138 96.072 140.76 96.072C139.472 96.072 138.422 96.464 137.61 97.248C136.798 98.018 136.392 99.089 136.392 100.461C136.392 101.833 136.805 102.911 137.631 103.695C138.471 104.465 139.514 104.85 140.76 104.85C141.194 104.85 141.663 104.78 142.167 104.64C142.671 104.486 143.063 104.409 143.343 104.409C143.777 104.409 144.127 104.563 144.393 104.871C144.659 105.179 144.792 105.55 144.792 105.984C144.792 106.698 144.449 107.258 143.763 107.664C143.021 108.126 142.006 108.357 140.718 108.357ZM153.918 108.336C151.482 108.336 149.55 107.601 148.122 106.131C146.708 104.647 146.001 102.757 146.001 100.461C146.001 98.165 146.715 96.275 148.143 94.791C149.571 93.307 151.496 92.565 153.918 92.565C156.34 92.565 158.265 93.307 159.693 94.791C161.121 96.275 161.835 98.165 161.835 100.461C161.835 102.771 161.128 104.661 159.714 106.131C158.3 107.601 156.368 108.336 153.918 108.336ZM153.918 104.934C155.178 104.934 156.158 104.542 156.858 103.758C157.558 102.96 157.908 101.861 157.908 100.461C157.908 99.047 157.551 97.941 156.837 97.143C156.123 96.345 155.136 95.946 153.876 95.946C152.658 95.946 151.692 96.352 150.978 97.164C150.264 97.962 149.907 99.061 149.907 100.461C149.907 101.847 150.264 102.939 150.978 103.737C151.706 104.535 152.686 104.934 153.918 104.934ZM169.96 108.168H166.285C165.641 108.168 165.151 108 164.815 107.664C164.479 107.314 164.311 106.824 164.311 106.194V94.686C164.311 93.37 164.969 92.712 166.285 92.712H169.96C172.564 92.712 174.566 93.398 175.966 94.77C177.366 96.142 178.066 98.032 178.066 100.44C178.066 102.862 177.366 104.759 175.966 106.131C174.566 107.489 172.564 108.168 169.96 108.168ZM168.091 96.03V104.85H170.044C171.374 104.85 172.389 104.472 173.089 103.716C173.803 102.96 174.16 101.868 174.16 100.44C174.16 98.998 173.803 97.906 173.089 97.164C172.375 96.408 171.36 96.03 170.044 96.03H168.091ZM188.974 108.168H182.548C181.904 108.168 181.414 108 181.078 107.664C180.742 107.314 180.574 106.824 180.574 106.194V94.686C180.574 93.37 181.232 92.712 182.548 92.712H188.911C189.373 92.712 189.744 92.852 190.024 93.132C190.318 93.412 190.465 93.797 190.465 94.287C190.465 94.763 190.325 95.141 190.045 95.421C189.779 95.687 189.415 95.82 188.953 95.82H184.312L184.333 98.844H188.281C188.757 98.844 189.135 98.991 189.415 99.285C189.709 99.579 189.856 99.971 189.856 100.461C189.856 100.951 189.709 101.336 189.415 101.616C189.135 101.896 188.764 102.036 188.302 102.036H184.333L184.354 105.039H188.953C189.415 105.039 189.786 105.179 190.066 105.459C190.36 105.739 190.507 106.124 190.507 106.614C190.507 107.09 190.367 107.468 190.087 107.748C189.807 108.028 189.436 108.168 188.974 108.168Z" fill="white" fill-opacity="0.8"/>
<path d="M52.8812 108.168H49.2062C48.5622 108.168 48.0722 108 47.7362 107.664C47.4002 107.314 47.2322 106.824 47.2322 106.194V94.686C47.2322 93.37 47.8902 92.712 49.2062 92.712H52.8812C55.4852 92.712 57.4872 93.398 58.8872 94.77C60.2872 96.142 60.9872 98.032 60.9872 100.44C60.9872 102.862 60.2872 104.759 58.8872 106.131C57.4872 107.489 55.4852 108.168 52.8812 108.168ZM51.0122 96.03V104.85H52.9652C54.2952 104.85 55.3102 104.472 56.0102 103.716C56.7242 102.96 57.0812 101.868 57.0812 100.44C57.0812 98.998 56.7242 97.906 56.0102 97.164C55.2962 96.408 54.2812 96.03 52.9652 96.03H51.0122ZM71.8949 108.168H65.4689C64.8249 108.168 64.3349 108 63.9989 107.664C63.6629 107.314 63.4949 106.824 63.4949 106.194V94.686C63.4949 93.37 64.1529 92.712 65.4689 92.712H71.8319C72.2939 92.712 72.6649 92.852 72.9449 93.132C73.2389 93.412 73.3859 93.797 73.3859 94.287C73.3859 94.763 73.2459 95.141 72.9659 95.421C72.6999 95.687 72.3359 95.82 71.8739 95.82H67.2329L67.2539 98.844H71.2019C71.6779 98.844 72.0559 98.991 72.3359 99.285C72.6299 99.579 72.7769 99.971 72.7769 100.461C72.7769 100.951 72.6299 101.336 72.3359 101.616C72.0559 101.896 71.6849 102.036 71.2229 102.036H67.2539L67.2749 105.039H71.8739C72.3359 105.039 72.7069 105.179 72.9869 105.459C73.2809 105.739 73.4279 106.124 73.4279 106.614C73.4279 107.09 73.2879 107.468 73.0079 107.748C72.7279 108.028 72.3569 108.168 71.8949 108.168ZM87.0737 103.464C87.0737 105.018 86.5277 106.222 85.4357 107.076C84.3577 107.93 82.9017 108.357 81.0677 108.357C79.1357 108.357 77.5817 107.986 76.4057 107.244C75.5937 106.754 75.1877 106.166 75.1877 105.48C75.1877 104.976 75.3417 104.584 75.6497 104.304C75.9577 104.01 76.3637 103.863 76.8677 103.863C77.1757 103.863 77.7567 104.059 78.6107 104.451C79.4647 104.829 80.2347 105.018 80.9207 105.018C81.6067 105.018 82.1107 104.885 82.4327 104.619C82.7687 104.353 82.9367 104.031 82.9367 103.653C82.9367 103.513 82.9087 103.38 82.8527 103.254C82.7967 103.128 82.6987 103.016 82.5587 102.918C82.4327 102.806 82.3067 102.715 82.1807 102.645C82.0687 102.561 81.8937 102.477 81.6557 102.393C81.4177 102.295 81.2217 102.225 81.0677 102.183C80.9277 102.127 80.7107 102.05 80.4167 101.952C80.1227 101.854 79.9057 101.784 79.7657 101.742C79.0797 101.518 78.4987 101.294 78.0227 101.07C77.5607 100.832 77.1057 100.538 76.6577 100.188C76.2237 99.824 75.8947 99.376 75.6707 98.844C75.4607 98.312 75.3557 97.696 75.3557 96.996C75.3557 95.652 75.8737 94.581 76.9097 93.783C77.9457 92.971 79.3807 92.565 81.2147 92.565C83.1467 92.565 84.6097 92.901 85.6037 93.573C86.2057 93.993 86.5067 94.504 86.5067 95.106C86.5067 95.61 86.3597 96.009 86.0657 96.303C85.7717 96.597 85.3727 96.744 84.8687 96.744C84.4767 96.744 83.9167 96.597 83.1887 96.303C82.4607 95.995 81.8237 95.841 81.2777 95.841C80.7177 95.841 80.2767 95.953 79.9547 96.177C79.6467 96.387 79.4927 96.674 79.4927 97.038C79.4927 97.36 79.6327 97.619 79.9127 97.815C80.2067 98.011 80.6477 98.207 81.2357 98.403C81.3197 98.431 81.4387 98.466 81.5927 98.508C83.3987 99.068 84.6237 99.558 85.2677 99.978C86.4717 100.762 87.0737 101.924 87.0737 103.464ZM91.4098 108.168C90.7938 108.168 90.3178 107.986 89.9818 107.622C89.6598 107.258 89.4988 106.782 89.4988 106.194V94.665C89.4988 94.077 89.6598 93.608 89.9818 93.258C90.3178 92.894 90.7938 92.712 91.4098 92.712C92.0118 92.712 92.4738 92.894 92.7958 93.258C93.1178 93.622 93.2788 94.091 93.2788 94.665V106.194C93.2788 106.768 93.1178 107.244 92.7958 107.622C92.4738 107.986 92.0118 108.168 91.4098 108.168ZM103.968 108.357C101.504 108.357 99.5225 107.65 98.0245 106.236C96.5265 104.822 95.7775 102.89 95.7775 100.44C95.7775 97.99 96.5265 96.065 98.0245 94.665C99.5225 93.265 101.532 92.565 104.052 92.565C105.648 92.565 106.859 92.796 107.685 93.258C108.357 93.65 108.693 94.182 108.693 94.854C108.693 95.344 108.546 95.743 108.252 96.051C107.972 96.345 107.608 96.492 107.16 96.492C106.964 96.492 106.586 96.429 106.026 96.303C105.466 96.163 104.906 96.086 104.346 96.072C102.946 96.072 101.819 96.45 100.965 97.206C100.111 97.962 99.6835 99.054 99.6835 100.482C99.6835 101.896 100.09 102.995 100.902 103.779C101.714 104.549 102.785 104.934 104.115 104.934C104.619 104.934 105.06 104.864 105.438 104.724V101.616C105.438 101.084 105.592 100.65 105.9 100.314C106.208 99.978 106.642 99.81 107.202 99.81C107.762 99.81 108.189 99.978 108.483 100.314C108.777 100.65 108.924 101.084 108.924 101.616V105.648C108.924 106.614 108.497 107.314 107.643 107.748C106.789 108.154 105.564 108.357 103.968 108.357ZM113.517 108.168C112.901 108.168 112.425 107.986 112.089 107.622C111.767 107.258 111.606 106.782 111.606 106.194V94.854C111.606 94.168 111.774 93.643 112.11 93.279C112.446 92.901 112.901 92.712 113.475 92.712C113.979 92.712 114.399 92.859 114.735 93.153C115.085 93.433 115.575 94.014 116.205 94.896L121.245 101.973H121.287L121.245 94.665C121.245 94.091 121.406 93.622 121.728 93.258C122.064 92.894 122.54 92.712 123.156 92.712C123.758 92.712 124.22 92.894 124.542 93.258C124.864 93.608 125.025 94.077 125.025 94.665V106.026C125.025 106.712 124.857 107.244 124.521 107.622C124.185 107.986 123.716 108.168 123.114 108.168C122.568 108.168 122.078 107.979 121.644 107.601C121.21 107.223 120.594 106.481 119.796 105.375L115.386 99.18H115.344L115.386 106.194C115.386 106.768 115.225 107.244 114.903 107.622C114.581 107.986 114.119 108.168 113.517 108.168Z" fill="#3380C7"/>
</g>
<defs>
<filter id="filter0_bdd" x="17.3639" y="-20" width="203.009" height="124.866" filterUnits="userSpaceOnUse" color-interpolation-filters="sRGB">
<feFlood flood-opacity="0" result="BackgroundImageFix"/>
<feGaussianBlur in="BackgroundImage" stdDeviation="15"/>
<feComposite in2="SourceAlpha" operator="in" result="effect1_backgroundBlur"/>
<feColorMatrix in="SourceAlpha" type="matrix" values="0 0 0 0 0 0 0 0 0 0 0 0 0 0 0 0 0 0 127 0"/>
<feOffset dy="4.8"/>
<feGaussianBlur stdDeviation="7.2"/>
<feColorMatrix type="matrix" values="0 0 0 0 0 0 0 0 0 0 0 0 0 0 0 0 0 0 0.15 0"/>
<feBlend mode="normal" in2="effect1_backgroundBlur" result="effect2_dropShadow"/>
<feColorMatrix in="SourceAlpha" type="matrix" values="0 0 0 0 0 0 0 0 0 0 0 0 0 0 0 0 0 0 127 0"/>
<feOffset dy="4"/>
<feGaussianBlur stdDeviation="2"/>
<feColorMatrix type="matrix" values="0 0 0 0 0 0 0 0 0 0 0 0 0 0 0 0 0 0 0.25 0"/>
<feBlend mode="normal" in2="effect2_dropShadow" result="effect3_dropShadow"/>
<feBlend mode="normal" in="SourceGraphic" in2="effect3_dropShadow" result="shape"/>
</filter>
<filter id="filter1_b" x="109.314" y="8.94559" width="85.0523" height="67.1679" filterUnits="userSpaceOnUse" color-interpolation-filters="sRGB">
<feFlood flood-opacity="0" result="BackgroundImageFix"/>
<feGaussianBlur in="BackgroundImage" stdDeviation="2"/>
<feComposite in2="SourceAlpha" operator="in" result="effect1_backgroundBlur"/>
<feBlend mode="normal" in="SourceGraphic" in2="effect1_backgroundBlur" result="shape"/>
</filter>
<filter id="filter2_bdd" x="17.2322" y="62.565" width="203.275" height="75.792" filterUnits="userSpaceOnUse" color-interpolation-filters="sRGB">
<feFlood flood-opacity="0" result="BackgroundImageFix"/>
<feGaussianBlur in="BackgroundImage" stdDeviation="15"/>
<feComposite in2="SourceAlpha" operator="in" result="effect1_backgroundBlur"/>
<feColorMatrix in="SourceAlpha" type="matrix" values="0 0 0 0 0 0 0 0 0 0 0 0 0 0 0 0 0 0 127 0"/>
<feOffset dy="4.8"/>
<feGaussianBlur stdDeviation="7.2"/>
<feColorMatrix type="matrix" values="0 0 0 0 0 0 0 0 0 0 0 0 0 0 0 0 0 0 0.15 0"/>
<feBlend mode="normal" in2="effect1_backgroundBlur" result="effect2_dropShadow"/>
<feColorMatrix in="SourceAlpha" type="matrix" values="0 0 0 0 0 0 0 0 0 0 0 0 0 0 0 0 0 0 127 0"/>
<feOffset dy="4"/>
<feGaussianBlur stdDeviation="2"/>
<feColorMatrix type="matrix" values="0 0 0 0 0 0 0 0 0 0 0 0 0 0 0 0 0 0 0.25 0"/>
<feBlend mode="normal" in2="effect2_dropShadow" result="effect3_dropShadow"/>
<feBlend mode="normal" in="SourceGraphic" in2="effect3_dropShadow" result="shape"/>
</filter>
</defs>
</svg>
