<svg width="18" height="16" viewBox="0 0 18 16" fill="none" xmlns="http://www.w3.org/2000/svg">
<path d="M15.9625 6.82265V13.6C15.9625 13.8016 15.7974 13.9667 15.5938 13.9667H2.40625C2.20264 13.9667 2.0375 13.8016 2.0375 13.6V6.82264L2.59059 8.47446C2.79597 9.08811 3.37046 9.5 4.01941 9.5H6.65625H7.125H7.59375H8.08322H10.4062H10.4078H10.4093H10.4108H10.4123H10.4139H10.4154H10.4169H10.4184H10.42H10.4215H10.423H10.4246H10.4261H10.4277H10.4292H10.4307H10.4323H10.4338H10.4354H10.4369H10.4385H10.44H10.4416H10.4431H10.4447H10.4462H10.4478H10.4493H10.4509H10.4525H10.454H10.4556H10.4571H10.4587H10.4603H10.4618H10.4634H10.465H10.4666H10.4681H10.4697H10.4713H10.4728H10.4744H10.476H10.4776H10.4792H10.4807H10.4823H10.4839H10.4855H10.4871H10.4886H10.4902H10.4918H10.4934H10.495H10.4966H10.4982H10.4997H10.5013H10.5029H10.5045H10.5061H10.5077H10.5093H10.5109H10.5125H10.5141H10.5157H10.5172H10.5188H10.5204H10.522H10.5236H10.5252H10.5268H10.5284H10.53H10.5316H10.5332H10.5348H10.5364H10.538H10.5396H10.5412H10.5428H10.5444H10.546H10.5476H10.5492H10.5508H10.5524H10.554H10.5556H10.5572H10.5588H10.5604H10.562H10.5636H10.5652H10.5668H10.5684H10.57H10.5716H10.5732H10.5748H10.5764H10.578H10.5796H10.5812H10.5828H10.5844H10.586H10.5875H10.5891H10.5907H10.5923H10.5939H10.5955H10.5971H10.5987H10.6003H10.6019H10.6035H10.6051H10.6067H10.6083H10.6098H10.6114H10.613H10.6146H10.6162H10.6178H10.6194H10.6209H10.6225H10.6241H10.6257H10.6273H10.6289H10.6304H10.632H10.6336H10.6352H10.6367H10.6383H10.6399H10.6415H10.643H10.6446H10.6462H10.6477H10.6493H10.6509H10.6524H10.654H10.6556H10.6571H10.6587H10.6602H10.6618H10.6634H10.6649H10.6665H10.668H10.6696H10.6711H10.6727H10.6742H10.6758H10.6773H10.6789H10.6804H10.6819H10.6835H10.685H10.6866H10.6881H10.6896H10.6912H10.6927H10.6942H10.6957H10.6973H10.6988H10.7003H10.7018H10.7034H10.7049H10.7064H10.7079H10.7094H10.7109H10.7124H10.7139H10.7154H10.7169H10.7184H10.7199H10.7214H10.7229H10.7244H10.7259H10.7274H10.7289H10.7304H10.7319H10.7333H10.7348H10.7363H10.7378H10.7392H10.7407H10.7422H10.7436H10.7451H10.7466H10.748H10.7495H10.7509H10.7524H10.7538H10.7553H10.7567H10.7582H10.7596H10.761H10.7625H10.7639H10.7653H10.7668H10.7682H10.7696H10.771H10.7724H10.7739H10.7753H10.7767H10.7781H10.7795H10.7809H10.7823H10.7837H10.7851H10.7865H10.7879H10.7892H10.7906H10.792H10.7934H10.7948H10.7961H10.7975H10.7989H10.8002H10.8016H10.8029H10.8043H10.8056H10.807H10.8083H10.8097H10.811H10.8123H10.8137H10.815H10.8163H10.8176H10.819H10.8203H10.8216H10.8229H10.8242H10.8255H10.8268H10.8281H10.8294H10.8307H10.832H10.8332H10.8345H10.8358H10.8371H10.8383H10.8396H10.8409H10.8421H10.8434H10.8446H10.8459H10.8471H10.8484H10.8496H10.8508H10.8521H10.8533H10.8545H10.8557H10.8569H10.8581H10.8594H10.8606H10.8618H10.863H10.8641H10.8653H10.8665H10.8677H10.8689H10.87H10.8712H10.8724H10.8735H10.8747H10.8758H10.877H10.8781H10.8793H10.8804H10.8815H10.8827H10.8838H10.8849H10.886H10.8871H10.8882H10.8893H10.8904H10.8915H10.8926H10.8937H10.8948H10.8958H10.8969H10.898H10.899H10.9001H10.9012H10.9022H10.9033H10.9043H10.9053H10.9064H10.9074H10.9084H10.9094H10.9104H10.9114H10.9124H10.9134H10.9144H10.9154H10.9164H10.9174H10.9184H10.9193H10.9203H10.9213H10.9222H10.9232H10.9241H10.9251H10.926H10.9269H10.9278H10.9288H10.9297H10.9306H10.9315H10.9324H10.9333H10.9342H10.9351H10.9359H10.9368H10.9377H10.9386H10.9394H10.9403H10.9411H10.942H10.9428H10.9436H10.9445H10.9453H10.9461H10.9469H10.9477H10.9485H10.9493H10.9501H10.9509H10.9517H10.9524H10.9532H10.954H10.9547H10.9555H10.9562H10.957H10.9577H10.9584H10.9592H10.9599H10.9606H10.9613H10.962H10.9627H10.9634H10.9641H10.9647H10.9654H10.9661H10.9667H10.9674H10.968H10.9687H10.9693H10.9699H10.9706H10.9712H10.9718H10.9724H10.973H10.9736H10.9742H10.9748H10.9754H10.9759H10.9765H10.977H10.9776H10.9781H10.9787H10.9792H10.9797H10.9803H10.9808H10.9813H10.9818H10.9823H10.9828H10.9832H10.9837H10.9842H10.9847H10.9851H10.9856H10.986H10.9864H10.9869H10.9873H10.9877H10.9881H10.9885H10.9889H10.9893H10.9897H10.9901H10.9904H10.9908H10.9912H10.9915H10.9919H10.9922H10.9925H10.9928H10.9932H10.9935H10.9938H10.9941H10.9944H10.9946H10.9949H10.9952H10.9954H10.9957H10.9959H10.9962H10.9964H10.9966H10.9969H10.9971H10.9973H10.9975H10.9977H10.9978H10.998H10.9982H10.9983H10.9985H10.9986H10.9988H10.9989H10.999H10.9991H10.9993H10.9994H10.9995H10.9995H10.9996H10.9997H10.9998H10.9998H10.9999H10.9999H10.9999H11H11H11H11.3438H13.9806C14.6295 9.5 15.204 9.08812 15.4094 8.47448C15.4094 8.47447 15.4094 8.47447 15.4094 8.47446L15.9625 6.82265ZM16.5312 2.76667H12.3813V2.4C12.3813 1.57241 11.7052 0.9 10.875 0.9H7.125C6.2948 0.9 5.61875 1.57241 5.61875 2.4V2.76667H1.46875C1.15211 2.76667 0.9 3.02478 0.9 3.33333V13.6C0.9 14.4276 1.57605 15.1 2.40625 15.1H15.5938C16.4239 15.1 17.1 14.4276 17.1 13.6V3.34318V3.34135H17.1002L17.0998 3.33551C17.0897 3.16263 17.0303 3.01914 16.9272 2.91829C16.8245 2.81774 16.687 2.76818 16.5366 2.7668L16.5354 2.76675L16.5354 2.76667H16.5312ZM2.25808 3.9H15.7419L14.3303 8.11578L14.3303 8.11582C14.2802 8.26572 14.1399 8.36667 13.9806 8.36667H11.3437H11.3437H11.3437H11.3437H11.3437H11.3437H11.3437H11.3436H11.3436H11.3436H11.3435H11.3435H11.3435H11.3434H11.3434H11.3433H11.3433H11.3432H11.3432H11.3431H11.3431H11.343H11.3429H11.3429H11.3428H11.3427H11.3427H11.3426H11.3425H11.3424H11.3423H11.3422H11.3421H11.342H11.3419H11.3418H11.3417H11.3416H11.3415H11.3414H11.3413H11.3412H11.3411H11.341H11.3408H11.3407H11.3406H11.3405H11.3403H11.3402H11.34H11.3399H11.3398H11.3396H11.3395H11.3393H11.3392H11.339H11.3389H11.3387H11.3385H11.3384H11.3382H11.338H11.3379H11.3377H11.3375H11.3373H11.3371H11.337H11.3368H11.3366H11.3364H11.3362H11.336H11.3358H11.3356H11.3354H11.3352H11.335H11.3348H11.3346H11.3344H11.3342H11.3339H11.3337H11.3335H11.3333H11.333H11.3328H11.3326H11.3324H11.3321H11.3319H11.3316H11.3314H11.3312H11.3309H11.3307H11.3304H11.3302H11.3299H11.3296H11.3294H11.3291H11.3289H11.3286H11.3283H11.3281H11.3278H11.3275H11.3272H11.327H11.3267H11.3264H11.3261H11.3258H11.3256H11.3253H11.325H11.3247H11.3244H11.3241H11.3238H11.3235H11.3232H11.3229H11.3226H11.3223H11.322H11.3217H11.3213H11.321H11.3207H11.3204H11.3201H11.3197H11.3194H11.3191H11.3188H11.3184H11.3181H11.3178H11.3174H11.3171H11.3168H11.3164H11.3161H11.3157H11.3154H11.315H11.3147H11.3143H11.314H11.3136H11.3133H11.3129H11.3126H11.3122H11.3118H11.3115H11.3111H11.3107H11.3104H11.31H11.3096H11.3092H11.3089H11.3085H11.3081H11.3077H11.3074H11.307H11.3066H11.3062H11.3058H11.3054H11.305H11.3046H11.3042H11.3038H11.3034H11.303H11.3026H11.3022H11.3018H11.3014H11.301H11.3006H11.3002H11.2998H11.2994H11.299H11.2986H11.2982H11.2977H11.2973H11.2969H11.2965H11.2961H11.2956H11.2952H11.2948H11.2943H11.2939H11.2935H11.2931H11.2926H11.2922H11.2918H11.2913H11.2909H11.2904H11.29H11.2896H11.2891H11.2887H11.2882H11.2878H11.2873H11.2869H11.2864H11.286H11.2855H11.2851H11.2846H11.2842H11.2837H11.2832H11.2828H11.2823H11.2819H11.2814H11.2809H11.2805H11.28H11.2795H11.2791H11.2786H11.2781H11.2777H11.2772H11.2767H11.2762H11.2758H11.2753H11.2748H11.2743H11.2739H11.2734H11.2729H11.2724H11.2719H11.2714H11.271H11.2705H11.27H11.2695H11.269H11.2685H11.268H11.2675H11.267H11.2666H11.2661H11.2656H11.2651H11.2646H11.2641H11.2636H11.2631H11.2626H11.2621H11.2616H11.2611H11.2606H11.2601H11.2596H11.2591H11.2586H11.2581H11.2575H11.257H11.2565H11.256H11.2555H11.255H11.2545H11.254H11.2535H11.2529H11.2524H11.2519H11.2514H11.2509H11.2504H11.2499H11.2493H11.2488H11.2483H11.2478H11.2473H11.2467H11.2462H11.2457H11.2452H11.2447H11.2441H11.2436H11.2431H11.2426H11.242H11.2415H11.241H11.2405H11.2399H11.2394H11.2389H11.2383H11.2378H11.2373H11.2368H11.2362H11.2357H11.2352H11.2346H11.2341H11.2336H11.233H11.2325H11.232H11.2314H11.2309H11.2304H11.2298H11.2293H11.2288H11.2282H11.2277H11.2272H11.2266H11.2261H11.2255H11.225H11.2245H11.2239H11.2234H11.2229H11.2223H11.2218H11.2212H11.2207H11.2202H11.2196H11.2191H11.2186H11.218H11.2175H11.2169H11.2164H11.2159H11.2153H11.2148H11.2142H11.2137H11.2132H11.2126H11.2121H11.2115H11.211H11.2104H11.2099H11.2094H11.2088H11.2083H11.2077H11.2072H11.2067H11.2061H11.2056H11.205H11.2045H11.204H11.2034H11.2029H11.2023H11.2018H11.2013H11.2007H11.2002H11.1996H11.1991H11.1986H11.198H11.1975H11.1969H11.1964H11.1959H11.1953H11.1948H11.1942H11.1937H11.1932H11.1926H11.1921H11.1916H11.191H11.1905H11.1899H11.1894H11.1889H11.1883H11.1878H11.1873H11.1867H11.1862H11.1857H11.1851H11.1846H11.1841H11.1835H11.183H11.1825H11.1819H11.1814H11.1809H11.1803H11.1798H11.1793H11.1787H11.1782H11.1777H11.1772H11.1766H11.1761H11.1756H11.175H11.1745H11.174H11.1735H11.1729H11.1724H11.1719H11.1714H11.1708H11.1703H11.1698H11.1693H11.1688H11.1682H11.1677H11.1672H11.1667H11.1662H11.1656H11.1651H11.1646H11.1641H11.1636H11.1631H11.1626H11.162H11.1615H11.161H11.1605H11.16H11.1595H11.159H11.1585H11.158H11.1575H11.157H11.1564H11.1559H11.1554H11.1549H11.1544H11.1539H11.1534H11.1529H11.1524H11.1519H11.1514H11.1509H11.1504H11.1499H11.1495H11.149H11.1485H11.148H11.1475H11.147H11.1465H11.146H11.1455H11.145H11.1446H11.1441H11.1436H11.1431H11.1426H11.1421H11.1417H11.1412H11.1407H11.1402H11.1398H11.1393H11.1388H11.1383H11.1379H8H7.125H6.65625H4.01941C3.86014 8.36667 3.71979 8.26572 3.66967 8.11582L3.66965 8.11578L2.25808 3.9ZM6.75625 2.4C6.75625 2.19837 6.92139 2.03333 7.125 2.03333H10.875C11.0786 2.03333 11.2437 2.19837 11.2437 2.4V2.76667H6.75625V2.4Z" fill="#D2D3D3" stroke="#D2D3D3" stroke-width="0.2"/>
</svg>
