<svg width="16" height="16" viewBox="0 0 16 16" fill="none" xmlns="http://www.w3.org/2000/svg">
<path d="M14.836 14.2412L11.121 10.3691C12.042 9.26813 12.5608 7.88512 12.5917 6.44856C12.6226 5.01201 12.1637 3.60788 11.2908 2.46819C10.418 1.3285 9.1834 0.521451 7.79111 0.180399C6.39883 -0.160652 4.93214 -0.0152986 3.63341 0.592443C2.33467 1.20019 1.28161 2.23394 0.648227 3.52291C0.0148412 4.81187 -0.160965 6.2789 0.149858 7.6816C0.460682 9.08429 1.23953 10.3387 2.35772 11.2376C3.4759 12.1364 4.86651 12.6259 6.29975 12.6252C7.59186 12.6286 8.85308 12.2293 9.90895 11.4826L13.6504 15.3838C13.7252 15.4618 13.8146 15.5242 13.9134 15.5675C14.0123 15.6109 14.1187 15.6343 14.2265 15.6364C14.3344 15.6385 14.4417 15.6193 14.5421 15.5798C14.6426 15.5404 14.7343 15.4815 14.8121 15.4065C14.8899 15.3315 14.9521 15.2419 14.9954 15.1428C15.0386 15.0437 15.0619 14.937 15.064 14.8289C15.0661 14.7207 15.047 14.6132 15.0076 14.5125C14.9683 14.4118 14.9096 14.3198 14.8348 14.2419L14.836 14.2412ZM6.29975 1.64191C7.2209 1.64154 8.12146 1.91508 8.88751 2.42794C9.65355 2.94079 10.2507 3.66992 10.6033 4.52306C10.9559 5.37621 11.0482 6.31504 10.8685 7.22079C10.6888 8.12654 10.2452 8.9585 9.59371 9.61141C8.94227 10.2643 8.11231 10.7089 7.20881 10.8888C6.30531 11.0687 5.36888 10.9759 4.518 10.6222C3.66711 10.2684 2.94 9.6696 2.42865 8.90147C1.9173 8.13334 1.64469 7.23041 1.64532 6.30692C1.64698 5.06998 2.13794 3.88419 3.01049 3.00966C3.88304 2.13513 5.06595 1.64325 6.29975 1.64191Z" fill="#232930"/>
</svg>
