<svg width="18" height="14" viewBox="0 0 18 14" fill="none" xmlns="http://www.w3.org/2000/svg">
<path d="M15.5938 0.9H2.40625C1.57808 0.9 0.9 1.5647 0.9 2.38462V11.6154C0.9 12.4325 1.57502 13.1 2.40625 13.1H15.5938C16.4198 13.1 17.1 12.4376 17.1 11.6154V2.38462C17.1 1.56753 16.425 0.9 15.5938 0.9ZM9.02951 8.05482L2.85057 2.02308H15.1555L9.02951 8.05482ZM6.30963 6.97905L2.0375 11.1854V2.80872L6.30963 6.97905ZM10.9062 7.79305L15.1555 11.9769H2.8445L7.11852 7.76866L8.6314 9.24547C8.8536 9.46239 9.21156 9.46169 9.43288 9.24375C9.43288 9.24375 9.43288 9.24374 9.43289 9.24374L10.9062 7.79305ZM15.9625 2.81455V11.1854L11.7117 7L15.9625 2.81455Z" fill="#D4D5D6" stroke="#D4D5D6" stroke-width="0.2"/>
</svg>
