<svg width="21" height="17" viewBox="0 0 21 17" fill="none" xmlns="http://www.w3.org/2000/svg">
<path d="M5.77649 11.3923H15.3007C15.4142 11.3922 15.5247 11.3553 15.6155 11.287C15.7063 11.2187 15.7726 11.1228 15.8044 11.0135L17.9081 3.63789C17.9304 3.55964 17.9343 3.47728 17.9195 3.39727C17.9047 3.31726 17.8716 3.24178 17.8228 3.17676C17.7739 3.11173 17.7108 3.05894 17.6382 3.02252C17.5656 2.98611 17.4856 2.96706 17.4044 2.96687H4.56502L4.18975 1.27256C4.1638 1.15555 4.09879 1.05092 4.00548 0.975964C3.91217 0.901011 3.79614 0.860226 3.67658 0.860352H0.525135C0.385861 0.860352 0.25229 0.915819 0.153809 1.01455C0.0553266 1.11328 0 1.24719 0 1.38682C0 1.52645 0.0553266 1.66036 0.153809 1.75909C0.25229 1.85783 0.385861 1.91329 0.525135 1.91329H3.25533L5.15187 10.4694C4.81734 10.6122 4.54245 10.8668 4.37391 11.1898C4.20537 11.5128 4.15357 11.8844 4.2273 12.2413C4.30103 12.5983 4.49576 12.9187 4.77839 13.148C5.06103 13.3773 5.41414 13.5015 5.77775 13.4994H15.3007C15.44 13.4994 15.5735 13.444 15.672 13.3452C15.7705 13.2465 15.8258 13.1126 15.8258 12.973C15.8258 12.8333 15.7705 12.6994 15.672 12.6007C15.5735 12.502 15.44 12.4465 15.3007 12.4465H5.77775C5.63847 12.4465 5.5049 12.391 5.40642 12.2923C5.30794 12.1936 5.25261 12.0597 5.25261 11.92C5.25261 11.7804 5.30794 11.6465 5.40642 11.5478C5.5049 11.449 5.63847 11.3936 5.77775 11.3936L5.77649 11.3923ZM16.7067 4.01981L14.9059 10.3387H6.19899L4.798 4.01981H16.7067Z" fill="#21262D"/>
<path d="M5.25269 15.0763C5.25269 15.3884 5.34501 15.6936 5.51798 15.9531C5.69095 16.2126 5.93679 16.4149 6.22443 16.5343C6.51207 16.6538 6.82858 16.685 7.13394 16.6241C7.43929 16.5633 7.71977 16.4129 7.93992 16.1922C8.16007 15.9715 8.31 15.6903 8.37074 15.3842C8.43148 15.0781 8.4003 14.7608 8.28115 14.4724C8.16201 14.184 7.96026 13.9375 7.70139 13.7641C7.44252 13.5907 7.13817 13.4982 6.82683 13.4982C6.4096 13.499 6.00969 13.6655 5.71466 13.9613C5.41963 14.2571 5.25352 14.658 5.25269 15.0763ZM6.82683 14.5498C6.9307 14.5498 7.03223 14.5807 7.11859 14.6386C7.20494 14.6964 7.27226 14.7786 7.312 14.8748C7.35175 14.971 7.36214 15.0769 7.34188 15.179C7.32162 15.2812 7.2716 15.375 7.19816 15.4486C7.12472 15.5222 7.03115 15.5724 6.92928 15.5927C6.82742 15.613 6.72183 15.6026 6.62588 15.5627C6.52992 15.5229 6.4479 15.4554 6.3902 15.3688C6.33249 15.2822 6.3017 15.1804 6.3017 15.0763C6.3022 14.937 6.35772 14.8035 6.45613 14.7051C6.55454 14.6066 6.68783 14.5513 6.82683 14.5511V14.5498Z" fill="#21262D"/>
<path d="M12.6763 15.0763C12.6763 15.3884 12.7686 15.6936 12.9416 15.9531C13.1145 16.2126 13.3604 16.4149 13.648 16.5343C13.9357 16.6538 14.2522 16.685 14.5575 16.6241C14.8629 16.5633 15.1434 16.4129 15.3635 16.1922C15.5837 15.9715 15.7336 15.6903 15.7943 15.3842C15.8551 15.0781 15.8239 14.7608 15.7047 14.4724C15.5856 14.184 15.3838 13.9375 15.125 13.7641C14.8661 13.5907 14.5618 13.4982 14.2504 13.4982C13.8332 13.499 13.4333 13.6655 13.1383 13.9613C12.8432 14.2571 12.6771 14.658 12.6763 15.0763ZM14.2504 14.5498C14.3543 14.5498 14.4558 14.5807 14.5422 14.6386C14.6285 14.6964 14.6958 14.7786 14.7356 14.8748C14.7753 14.971 14.7857 15.0769 14.7655 15.179C14.7452 15.2812 14.6952 15.375 14.6217 15.4486C14.5483 15.5222 14.4547 15.5724 14.3529 15.5927C14.251 15.613 14.1454 15.6026 14.0495 15.5627C13.9535 15.5229 13.8715 15.4554 13.8138 15.3688C13.7561 15.2822 13.7253 15.1804 13.7253 15.0763C13.7258 14.937 13.7813 14.8035 13.8797 14.7051C13.9781 14.6066 14.1114 14.5513 14.2504 14.5511V14.5498Z" fill="#21262D"/>
<path d="M16.628 6.94386C18.7146 6.94386 20.406 5.38942 20.406 3.47193C20.406 1.55444 18.7146 0 16.628 0C14.5415 0 12.8501 1.55444 12.8501 3.47193C12.8501 5.38942 14.5415 6.94386 16.628 6.94386Z" fill="#21262D"/>
<path d="M16.709 5.11923C16.469 5.11923 16.2557 5.0619 16.069 4.94723C15.8824 4.83257 15.7357 4.6659 15.629 4.44723C15.525 4.2259 15.473 3.96457 15.473 3.66323C15.473 3.3619 15.525 3.1019 15.629 2.88323C15.7357 2.6619 15.8824 2.4939 16.069 2.37923C16.2557 2.26457 16.469 2.20723 16.709 2.20723C16.9464 2.20723 17.1584 2.26457 17.345 2.37923C17.5317 2.4939 17.677 2.6619 17.781 2.88323C17.8877 3.1019 17.941 3.3619 17.941 3.66323C17.941 3.96457 17.8877 4.2259 17.781 4.44723C17.677 4.6659 17.5317 4.83257 17.345 4.94723C17.1584 5.0619 16.9464 5.11923 16.709 5.11923ZM16.709 4.47123C16.8424 4.47123 16.9477 4.40723 17.025 4.27923C17.105 4.14857 17.145 3.94323 17.145 3.66323C17.145 3.38323 17.105 3.17923 17.025 3.05123C16.9477 2.92057 16.8424 2.85523 16.709 2.85523C16.573 2.85523 16.465 2.92057 16.385 3.05123C16.3077 3.17923 16.269 3.38323 16.269 3.66323C16.269 3.94323 16.3077 4.14857 16.385 4.27923C16.465 4.40723 16.573 4.47123 16.709 4.47123Z" fill="#94989C"/>
</svg>
